<svg width="32" height="32" viewBox="0 0 200 200" fill="none" xmlns="http://www.w3.org/2000/svg">
<path d="M184.375 37.5H150V15.625H137.5V37.5H62.5V15.625H50V37.5H15.625C13.1395 37.5029 10.7566 38.4915 8.99907 40.2491C7.24154 42.0066 6.25289 44.3895 6.25 46.875V178.125C6.25289 180.611 7.24154 182.993 8.99907 184.751C10.7566 186.508 13.1395 187.497 15.625 187.5H184.375C186.861 187.497 189.243 186.508 191.001 184.751C192.758 182.993 193.747 180.611 193.75 178.125V46.875C193.747 44.3895 192.758 42.0066 191.001 40.2491C189.243 38.4915 186.861 37.5029 184.375 37.5V37.5ZM181.25 175H18.75V50H50V65.625H62.5V50H137.5V65.625H150V50H181.25V175Z" fill="black"/>
<path d="M43.75 87.5H56.25V100H43.75V87.5ZM78.125 87.5H90.625V100H78.125V87.5ZM109.375 87.5H121.875V100H109.375V87.5ZM143.75 87.5H156.25V100H143.75V87.5ZM43.75 115.625H56.25V128.125H43.75V115.625ZM78.125 115.625H90.625V128.125H78.125V115.625ZM109.375 115.625H121.875V128.125H109.375V115.625ZM143.75 115.625H156.25V128.125H143.75V115.625ZM43.75 143.75H56.25V156.25H43.75V143.75ZM78.125 143.75H90.625V156.25H78.125V143.75ZM109.375 143.75H121.875V156.25H109.375V143.75ZM143.75 143.75H156.25V156.25H143.75V143.75Z" fill="black"/>
</svg>
