<svg width="32" height="32" viewBox="0 0 500 500" xmlns="http://www.w3.org/2000/svg">
<path d="M290 391.8C287.6 391.8 284.933 390.867 282 389C279.333 387.4 278 385.667 278 383.8L278.4 357.4C278.4 343.267 277.067 329.267 274.4 315.4C271.733 301.533 266.933 287.933 260 274.6C258.667 271.4 256.8 268.2 254.4 265C242.933 268.467 230.8 271.267 218 273.4L206 276.6C188.933 300.6 171.467 323.933 153.6 346.6L151.6 347.4C148.933 347.4 147.067 346.2 146 343.8L193.2 279.8C180.4 282.2 168.267 284.067 156.8 285.4C149.333 285.4 142.4 283.533 136 279.8C129.867 275.8 125.6 270.067 123.2 262.6C122.4 259.133 122 255.8 122 252.6C122 243.267 124.933 235.133 130.8 228.2C136.933 221.267 144.533 215.933 153.6 212.2C162.667 208.2 171.6 206.2 180.4 206.2L188 207C203.467 209.133 217.333 215.133 229.6 225L237.2 213.4C266.267 168.867 293.467 123.4 318.8 77C319.867 75.6667 321.2 75 322.8 75C325.467 75 328.267 76.0667 331.2 78.2C334.4 80.3333 336 82.6 336 85V85.4C326.4 136.867 317.867 188.867 310.4 241.4C317.333 239.533 324.133 238.6 330.8 238.6C336.133 238.6 341.067 239.533 345.6 241.4C349.6 242.733 351.6 244.2 351.6 245.8L349.6 246.6H343.6C333.733 246.6 323.733 248.067 313.6 251C312.267 251.8 310.4 252.2 308 252.2C302.4 294.867 298.133 337.8 295.2 381C295.2 382.867 294.933 385.4 294.4 388.6C294.4 391 292.933 392.067 290 391.8ZM258.4 252.6L291.2 245C296.533 205.533 302.933 166.2 310.4 127C290.133 157.667 269.333 188.067 248 218.2L238.8 231.8C246 237.933 252.533 244.867 258.4 252.6ZM150.4 275.4C154.933 275.4 159.6 274.733 164.4 273.4L202.8 265.8C210.267 253.8 218.133 242.467 226.4 231.8C213.6 221.133 200 215.8 185.6 215.8L176 216.6C160 220.333 148.133 228.867 140.4 242.2C137.733 248.067 136.4 253.8 136.4 259.4L137.2 265.8C138.267 269.533 140 272.067 142.4 273.4C144.8 274.733 147.467 275.4 150.4 275.4ZM216.8 262.6L248 255C244 248.867 239.333 243.267 234 238.2L216.8 262.6ZM284 302.2C285.6 287 287.467 271.8 289.6 256.6L265.2 262.2C273.2 274.733 279.467 288.067 284 302.2Z" fill="black"/>
</svg>
