<?xml version="1.0" ?><!DOCTYPE svg  PUBLIC '-//W3C//DTD SVG 1.1//EN'  'http://www.w3.org/Graphics/SVG/1.1/DTD/svg11.dtd'><svg enable-background="new 0 0 128 128" id="Слой_1" version="1.1" viewBox="0 0 128 128" xml:space="preserve" xmlns="http://www.w3.org/2000/svg" xmlns:xlink="http://www.w3.org/1999/xlink"><circle cx="64" cy="72" fill="#FFFFFF" r="45"/><path d="M39,72c0-21.4,15-39.3,35-43.9c-3.2-0.7-6.6-1.1-10-1.1c-24.9,0-45,20.1-45,45s20.1,45,45,45  c3.4,0,6.8-0.4,10-1.1C54,111.3,39,93.4,39,72z" fill="#E5E6E6"/><circle cx="111.5" cy="16.5" fill="#FFFFFF" r="12.5"/><path d="M13.9,83.2c-0.7-0.5-1.6-0.3-2.1,0.3C7.7,89.2,6.5,94.2,8.3,98c2.1,4.5,8.1,6.6,16.6,6.6  c1.8,0,3.8-0.1,5.8-0.3c8.5,8.7,20.3,14.2,33.4,14.2c25.6,0,46.5-20.9,46.5-46.5c0-1.6-0.1-3.2-0.3-4.8c8.2-8.1,12-15.7,9.5-21.2  c-1.7-3.7-6.2-6-13-6.6c-0.8-0.1-1.5,0.5-1.6,1.4s0.5,1.5,1.4,1.6c3.9,0.3,8.9,1.4,10.5,4.8c1.7,3.7-0.9,9.5-7.3,16.2  c-4-21.6-23-38-45.7-38c-25.6,0-46.5,20.9-46.5,46.5c0,11.2,4,21.5,10.6,29.5c-9.2,0.6-15.4-1.1-17.1-4.8c-1.6-3.5,0.9-8.1,3.2-11.4  C14.7,84.6,14.6,83.7,13.9,83.2z M64,115.5c-11.4,0-21.8-4.4-29.6-11.6c11.1-1.6,24.6-5.8,38.7-12.4c14.1-6.6,26-14.3,34.4-21.7  c0,0.7,0.1,1.5,0.1,2.2C107.5,96,88,115.5,64,115.5z M64,28.5c22,0,40.2,16.4,43.1,37.6c-7.8,7.4-19.8,15.5-35.3,22.7  c-14.2,6.6-28.4,11-40,12.4c-7-7.7-11.3-18-11.3-29.2C20.5,48,40,28.5,64,28.5z" fill="#4A374F"/><path d="M111.5,2.5c-7.7,0-14,6.3-14,14s6.3,14,14,14s14-6.3,14-14S119.2,2.5,111.5,2.5z M111.5,27.5  c-6.1,0-11-4.9-11-11s4.9-11,11-11s11,4.9,11,11S117.6,27.5,111.5,27.5z" fill="#4A374F"/></svg>