<svg width="32" height="32" viewBox="0 0 2263 2263" fill="none" xmlns="http://www.w3.org/2000/svg">
<circle cx="1131.5" cy="1131.5" r="1131" stroke="black"/>
<path d="M1319.66 927.565C1318.05 921.599 1315.68 916.343 1312.56 911.798C1309.43 907.157 1305.6 903.228 1301.05 900.008C1296.51 896.788 1291.3 894.373 1285.43 892.763C1279.56 891.059 1273.12 890.207 1266.11 890.207C1252 890.207 1239.78 893.616 1229.46 900.434C1219.23 907.252 1211.33 917.195 1205.74 930.263C1200.15 943.237 1197.36 959.004 1197.36 977.565C1197.36 996.22 1200.06 1012.13 1205.46 1025.29C1210.85 1038.45 1218.67 1048.49 1228.89 1055.41C1239.12 1062.32 1251.53 1065.77 1266.11 1065.77C1278.99 1065.77 1289.88 1063.69 1298.78 1059.52C1307.78 1055.26 1314.59 1049.25 1319.23 1041.49C1323.87 1033.72 1326.19 1024.58 1326.19 1014.07L1339.26 1015.63H1268.52V964.354H1393.95V1002.85C1393.95 1028.89 1388.41 1051.19 1377.33 1069.75C1366.35 1088.31 1351.19 1102.56 1331.88 1112.51C1312.65 1122.45 1290.54 1127.42 1265.54 1127.42C1237.79 1127.42 1213.41 1121.41 1192.39 1109.38C1171.37 1097.36 1154.98 1080.22 1143.24 1057.96C1131.5 1035.61 1125.63 1009.1 1125.63 978.417C1125.63 954.553 1129.18 933.388 1136.28 914.923C1143.38 896.362 1153.28 880.642 1165.97 867.763C1178.75 854.885 1193.52 845.131 1210.29 838.502C1227.14 831.873 1245.28 828.559 1264.69 828.559C1281.54 828.559 1297.22 830.974 1311.71 835.803C1326.29 840.633 1339.17 847.451 1350.34 856.258C1361.61 865.065 1370.75 875.529 1377.76 887.65C1384.76 899.771 1389.12 913.076 1390.83 927.565H1319.66ZM1435.39 1123.45V832.536H1638.23V889.638H1505.7V949.298H1627.86V1006.54H1505.7V1066.34H1638.23V1123.45H1435.39Z" fill="black"/>
<path d="M1319.66 927.565L1318.7 927.825L1318.89 928.565H1319.66V927.565ZM1312.56 911.798L1311.73 912.356L1311.73 912.364L1312.56 911.798ZM1285.43 892.763L1285.15 893.724L1285.16 893.726L1285.16 893.728L1285.43 892.763ZM1229.46 900.434L1228.91 899.6L1228.91 899.602L1229.46 900.434ZM1205.74 930.263L1206.66 930.659L1206.66 930.657L1205.74 930.263ZM1205.46 1025.29L1206.38 1024.91L1206.38 1024.91L1205.46 1025.29ZM1228.89 1055.41L1229.45 1054.58L1229.45 1054.58L1228.89 1055.41ZM1298.78 1059.52L1299.2 1060.43L1299.21 1060.43L1298.78 1059.52ZM1319.23 1041.49L1318.38 1040.97L1318.38 1040.97L1319.23 1041.49ZM1326.19 1014.07L1326.31 1013.08L1325.19 1012.94V1014.07H1326.19ZM1339.26 1015.63V1016.63L1339.38 1014.64L1339.26 1015.63ZM1268.52 1015.63H1267.52V1016.63H1268.52V1015.63ZM1268.52 964.354V963.354H1267.52V964.354H1268.52ZM1393.95 964.354H1394.95V963.354H1393.95V964.354ZM1377.33 1069.75L1376.47 1069.24L1376.47 1069.24L1377.33 1069.75ZM1331.88 1112.51L1331.42 1111.62L1331.42 1111.62L1331.88 1112.51ZM1192.39 1109.38L1192.88 1108.51L1192.88 1108.51L1192.39 1109.38ZM1143.24 1057.96L1142.35 1058.43L1142.36 1058.43L1143.24 1057.96ZM1136.28 914.923L1137.21 915.282L1137.21 915.28L1136.28 914.923ZM1165.97 867.763L1165.26 867.059L1165.26 867.062L1165.97 867.763ZM1210.29 838.502L1209.92 837.571L1209.92 837.572L1210.29 838.502ZM1311.71 835.803L1311.39 836.752L1311.39 836.753L1311.71 835.803ZM1350.34 856.258L1349.72 857.043L1349.73 857.046L1350.34 856.258ZM1377.76 887.65L1376.89 888.15L1376.89 888.15L1377.76 887.65ZM1390.83 927.565V928.565H1391.95L1391.82 927.448L1390.83 927.565ZM1320.63 927.304C1318.99 921.242 1316.58 915.88 1313.38 911.231L1311.73 912.364C1314.79 916.806 1317.11 921.955 1318.7 927.825L1320.63 927.304ZM1313.39 911.239C1310.2 906.499 1306.28 902.482 1301.63 899.192L1300.47 900.824C1304.92 903.973 1308.67 907.816 1311.73 912.356L1313.39 911.239ZM1301.63 899.192C1296.98 895.899 1291.67 893.437 1285.69 891.799L1285.16 893.728C1290.93 895.31 1296.03 897.677 1300.47 900.824L1301.63 899.192ZM1285.71 891.803C1279.73 890.069 1273.2 889.207 1266.11 889.207V891.207C1273.04 891.207 1279.38 892.049 1285.15 893.724L1285.71 891.803ZM1266.11 889.207C1251.83 889.207 1239.42 892.659 1228.91 899.6L1230.01 901.268C1240.15 894.573 1252.17 891.207 1266.11 891.207V889.207ZM1228.91 899.602C1218.49 906.544 1210.47 916.652 1204.82 929.87L1206.66 930.657C1212.18 917.738 1219.97 907.96 1230.02 901.266L1228.91 899.602ZM1204.82 929.868C1199.17 942.999 1196.36 958.909 1196.36 977.565H1198.36C1198.36 959.099 1201.14 943.475 1206.66 930.659L1204.82 929.868ZM1196.36 977.565C1196.36 996.312 1199.07 1012.36 1204.53 1025.67L1206.38 1024.91C1201.05 1011.9 1198.36 996.128 1198.36 977.565H1196.36ZM1204.53 1025.67C1209.99 1038.99 1217.92 1049.19 1228.33 1056.23L1229.45 1054.58C1219.41 1047.79 1211.72 1037.92 1206.38 1024.91L1204.53 1025.67ZM1228.33 1056.23C1238.75 1063.28 1251.36 1066.77 1266.11 1066.77V1064.77C1251.69 1064.77 1239.49 1061.36 1229.45 1054.58L1228.33 1056.23ZM1266.11 1066.77C1279.09 1066.77 1290.14 1064.68 1299.2 1060.43L1298.36 1058.62C1289.62 1062.71 1278.89 1064.77 1266.11 1064.77V1066.77ZM1299.21 1060.43C1308.36 1056.09 1315.34 1049.95 1320.09 1042L1318.38 1040.97C1313.85 1048.55 1307.19 1054.44 1298.35 1058.62L1299.21 1060.43ZM1320.09 1042C1324.84 1034.05 1327.19 1024.73 1327.19 1014.07H1325.19C1325.19 1024.43 1322.91 1033.39 1318.38 1040.97L1320.09 1042ZM1326.08 1015.06L1339.14 1016.63L1339.38 1014.64L1326.31 1013.08L1326.08 1015.06ZM1339.26 1014.63H1268.52V1016.63H1339.26V1014.63ZM1269.52 1015.63V964.354H1267.52V1015.63H1269.52ZM1268.52 965.354H1393.95V963.354H1268.52V965.354ZM1392.95 964.354V1002.85H1394.95V964.354H1392.95ZM1392.95 1002.85C1392.95 1028.75 1387.44 1050.86 1376.47 1069.24L1378.19 1070.26C1389.38 1051.52 1394.95 1029.03 1394.95 1002.85H1392.95ZM1376.47 1069.24C1365.58 1087.64 1350.57 1101.76 1331.42 1111.62L1332.33 1113.4C1351.82 1103.37 1367.11 1088.99 1378.19 1070.26L1376.47 1069.24ZM1331.42 1111.62C1312.36 1121.48 1290.41 1126.42 1265.54 1126.42V1128.42C1290.68 1128.42 1312.95 1123.42 1332.34 1113.4L1331.42 1111.62ZM1265.54 1126.42C1237.94 1126.42 1213.74 1120.44 1192.88 1108.51L1191.89 1110.25C1213.09 1122.38 1237.65 1128.42 1265.54 1128.42V1126.42ZM1192.88 1108.51C1172.03 1096.59 1155.78 1079.59 1144.12 1057.5L1142.36 1058.43C1154.18 1080.84 1170.7 1098.13 1191.89 1110.25L1192.88 1108.51ZM1144.13 1057.5C1132.47 1035.32 1126.63 1008.97 1126.63 978.417H1124.63C1124.63 1009.23 1130.52 1035.91 1142.35 1058.43L1144.13 1057.5ZM1126.63 978.417C1126.63 954.651 1130.16 933.612 1137.21 915.282L1135.35 914.564C1128.19 933.165 1124.63 954.455 1124.63 978.417H1126.63ZM1137.21 915.28C1144.27 896.835 1154.1 881.236 1166.68 868.465L1165.26 867.062C1152.46 880.048 1142.49 895.889 1135.35 914.565L1137.21 915.28ZM1166.68 868.468C1179.36 855.686 1194.02 846.01 1210.65 839.432L1209.92 837.572C1193.03 844.252 1178.14 854.083 1165.26 867.059L1166.68 868.468ZM1210.65 839.433C1227.38 832.853 1245.39 829.559 1264.69 829.559V827.559C1245.16 827.559 1226.9 830.894 1209.92 837.571L1210.65 839.433ZM1264.69 829.559C1281.45 829.559 1297.01 831.96 1311.39 836.752L1312.02 834.855C1297.42 829.988 1281.64 827.559 1264.69 827.559V829.559ZM1311.39 836.753C1325.87 841.549 1338.65 848.314 1349.72 857.043L1350.96 855.472C1339.69 846.588 1326.71 839.717 1312.02 834.854L1311.39 836.753ZM1349.73 857.046C1360.9 865.775 1369.95 876.142 1376.89 888.15L1378.62 887.149C1371.55 874.915 1362.33 864.354 1350.96 855.47L1349.73 857.046ZM1376.89 888.15C1383.83 900.149 1388.14 913.322 1389.83 927.681L1391.82 927.448C1390.1 912.83 1385.7 899.393 1378.62 887.149L1376.89 888.15ZM1390.83 926.565H1319.66V928.565H1390.83V926.565ZM1435.39 1123.45H1434.39V1124.45H1435.39V1123.45ZM1435.39 832.536V831.536H1434.39V832.536H1435.39ZM1638.23 832.536H1639.23V831.536H1638.23V832.536ZM1638.23 889.638V890.638H1639.23V889.638H1638.23ZM1505.7 889.638V888.638H1504.7V889.638H1505.7ZM1505.7 949.298H1504.7V950.298H1505.7V949.298ZM1627.86 949.298H1628.86V948.298H1627.86V949.298ZM1627.86 1006.54V1007.54H1628.86V1006.54H1627.86ZM1505.7 1006.54V1005.54H1504.7V1006.54H1505.7ZM1505.7 1066.34H1504.7V1067.34H1505.7V1066.34ZM1638.23 1066.34H1639.23V1065.34H1638.23V1066.34ZM1638.23 1123.45V1124.45H1639.23V1123.45H1638.23ZM1436.39 1123.45V832.536H1434.39V1123.45H1436.39ZM1435.39 833.536H1638.23V831.536H1435.39V833.536ZM1637.23 832.536V889.638H1639.23V832.536H1637.23ZM1638.23 888.638H1505.7V890.638H1638.23V888.638ZM1504.7 889.638V949.298H1506.7V889.638H1504.7ZM1505.7 950.298H1627.86V948.298H1505.7V950.298ZM1626.86 949.298V1006.54H1628.86V949.298H1626.86ZM1627.86 1005.54H1505.7V1007.54H1627.86V1005.54ZM1504.7 1006.54V1066.34H1506.7V1006.54H1504.7ZM1505.7 1067.34H1638.23V1065.34H1505.7V1067.34ZM1637.23 1066.34V1123.45H1639.23V1066.34H1637.23ZM1638.23 1122.45H1435.39V1124.45H1638.23V1122.45Z" fill="black"/>
<path d="M1157.77 1434.45V1143.54H1360.62V1200.64H1228.09V1260.3H1350.25V1317.54H1228.09V1377.34H1360.62V1434.45H1157.77ZM1467.58 1434.45H1392.01L1490.16 1143.54H1583.77L1681.92 1434.45H1606.35L1538.03 1216.83H1535.76L1467.58 1434.45ZM1457.49 1319.96H1615.45V1373.37H1457.49V1319.96Z" fill="black"/>
<path d="M1157.77 1434.45H1156.77V1435.45H1157.77V1434.45ZM1157.77 1143.54V1142.54H1156.77V1143.54H1157.77ZM1360.62 1143.54H1361.62V1142.54H1360.62V1143.54ZM1360.62 1200.64V1201.64H1361.62V1200.64H1360.62ZM1228.09 1200.64V1199.64H1227.09V1200.64H1228.09ZM1228.09 1260.3H1227.09V1261.3H1228.09V1260.3ZM1350.25 1260.3H1351.25V1259.3H1350.25V1260.3ZM1350.25 1317.54V1318.54H1351.25V1317.54H1350.25ZM1228.09 1317.54V1316.54H1227.09V1317.54H1228.09ZM1228.09 1377.34H1227.09V1378.34H1228.09V1377.34ZM1360.62 1377.34H1361.62V1376.34H1360.62V1377.34ZM1360.62 1434.45V1435.45H1361.62V1434.45H1360.62ZM1158.77 1434.45V1143.54H1156.77V1434.45H1158.77ZM1157.77 1144.54H1360.62V1142.54H1157.77V1144.54ZM1359.62 1143.54V1200.64H1361.62V1143.54H1359.62ZM1360.62 1199.64H1228.09V1201.64H1360.62V1199.64ZM1227.09 1200.64V1260.3H1229.09V1200.64H1227.09ZM1228.09 1261.3H1350.25V1259.3H1228.09V1261.3ZM1349.25 1260.3V1317.54H1351.25V1260.3H1349.25ZM1350.25 1316.54H1228.09V1318.54H1350.25V1316.54ZM1227.09 1317.54V1377.34H1229.09V1317.54H1227.09ZM1228.09 1378.34H1360.62V1376.34H1228.09V1378.34ZM1359.62 1377.34V1434.45H1361.62V1377.34H1359.62ZM1360.62 1433.45H1157.77V1435.45H1360.62V1433.45ZM1467.58 1434.45V1435.45H1468.31L1468.53 1434.74L1467.58 1434.45ZM1392.01 1434.45L1391.06 1434.13L1390.62 1435.45H1392.01V1434.45ZM1490.16 1143.54V1142.54H1489.44L1489.21 1143.22L1490.16 1143.54ZM1583.77 1143.54L1584.72 1143.22L1584.49 1142.54H1583.77V1143.54ZM1681.92 1434.45V1435.45H1683.32L1682.87 1434.13L1681.92 1434.45ZM1606.35 1434.45L1605.4 1434.74L1605.62 1435.45H1606.35V1434.45ZM1538.03 1216.83L1538.98 1216.53L1538.76 1215.83H1538.03V1216.83ZM1535.76 1216.83V1215.83H1535.02L1534.8 1216.53L1535.76 1216.83ZM1457.49 1319.96V1318.96H1456.49V1319.96H1457.49ZM1615.45 1319.96H1616.45V1318.96H1615.45V1319.96ZM1615.45 1373.37V1374.37H1616.45V1373.37H1615.45ZM1457.49 1373.37H1456.49V1374.37H1457.49V1373.37ZM1467.58 1433.45H1392.01V1435.45H1467.58V1433.45ZM1392.96 1434.77L1491.11 1143.86L1489.21 1143.22L1391.06 1434.13L1392.96 1434.77ZM1490.16 1144.54H1583.77V1142.54H1490.16V1144.54ZM1582.82 1143.86L1680.98 1434.77L1682.87 1434.13L1584.72 1143.22L1582.82 1143.86ZM1681.92 1433.45H1606.35V1435.45H1681.92V1433.45ZM1607.31 1434.15L1538.98 1216.53L1537.08 1217.13L1605.4 1434.74L1607.31 1434.15ZM1538.03 1215.83H1535.76V1217.83H1538.03V1215.83ZM1534.8 1216.53L1466.62 1434.15L1468.53 1434.74L1536.71 1217.13L1534.8 1216.53ZM1457.49 1320.96H1615.45V1318.96H1457.49V1320.96ZM1614.45 1319.96V1373.37H1616.45V1319.96H1614.45ZM1615.45 1372.37H1457.49V1374.37H1615.45V1372.37ZM1458.49 1373.37V1319.96H1456.49V1373.37H1458.49Z" fill="black"/>
<mask id="path-6-outside-1_616_1074" maskUnits="userSpaceOnUse" x="1655.49" y="831.445" width="247" height="604" fill="black">
<rect fill="white" x="1655.49" y="831.445" width="247" height="604"/>
<path fill-rule="evenodd" clip-rule="evenodd" d="M1656.49 832.445H1901.49V889.01H1812.99V889.502V1434H1744.99V889.502V889.01H1656.49V832.445Z"/>
</mask>
<path fill-rule="evenodd" clip-rule="evenodd" d="M1656.49 832.445H1901.49V889.01H1812.99V889.502V1434H1744.99V889.502V889.01H1656.49V832.445Z" fill="black"/>
<path d="M1901.49 832.445H1902.49V831.445H1901.49V832.445ZM1656.49 832.445V831.445H1655.49V832.445H1656.49ZM1901.49 889.01V890.01H1902.49V889.01H1901.49ZM1812.99 889.01V888.01H1811.99V889.01H1812.99ZM1812.99 1434V1435H1813.99V1434H1812.99ZM1744.99 1434H1743.99V1435H1744.99V1434ZM1744.99 889.01H1745.99V888.01H1744.99V889.01ZM1656.49 889.01H1655.49V890.01H1656.49V889.01ZM1901.49 831.445H1656.49V833.445H1901.49V831.445ZM1902.49 889.01V832.445H1900.49V889.01H1902.49ZM1812.99 890.01H1901.49V888.01H1812.99V890.01ZM1811.99 889.01V889.502H1813.99V889.01H1811.99ZM1811.99 889.502V1434H1813.99V889.502H1811.99ZM1812.99 1433H1744.99V1435H1812.99V1433ZM1745.99 1434V889.502H1743.99V1434H1745.99ZM1745.99 889.502V889.01H1743.99V889.502H1745.99ZM1656.49 890.01H1744.99V888.01H1656.49V890.01ZM1655.49 832.445V889.01H1657.49V832.445H1655.49Z" fill="black" mask="url(#path-6-outside-1_616_1074)"/>
<mask id="path-8-outside-2_616_1074" maskUnits="userSpaceOnUse" x="337.93" y="635.966" width="852.123" height="988.098" fill="black">
<rect fill="white" x="337.93" y="635.966" width="852.123" height="988.098"/>
<path d="M1159.4 1482.08C1090.25 1546.54 1003.54 1589.06 910.223 1604.24C816.911 1619.43 721.192 1606.6 635.17 1567.39C549.148 1528.17 476.686 1464.33 426.948 1383.93C377.21 1303.53 352.43 1210.19 355.742 1115.71C359.053 1021.23 390.307 929.848 445.552 853.129C500.796 776.41 577.549 717.796 666.106 684.699C754.663 651.602 851.045 645.508 943.065 667.188C1035.09 688.868 1118.61 737.349 1183.08 806.498L833.448 1132.45L1159.4 1482.08Z"/>
</mask>
<path d="M1159.4 1482.08C1090.25 1546.54 1003.54 1589.06 910.223 1604.24C816.911 1619.43 721.192 1606.6 635.17 1567.39C549.148 1528.17 476.686 1464.33 426.948 1383.93C377.21 1303.53 352.43 1210.19 355.742 1115.71C359.053 1021.23 390.307 929.848 445.552 853.129C500.796 776.41 577.549 717.796 666.106 684.699C754.663 651.602 851.045 645.508 943.065 667.188C1035.09 688.868 1118.61 737.349 1183.08 806.498L833.448 1132.45L1159.4 1482.08Z" fill="black"/>
<path d="M1159.4 1482.08C1090.25 1546.54 1003.54 1589.06 910.223 1604.24C816.911 1619.43 721.192 1606.6 635.17 1567.39C549.148 1528.17 476.686 1464.33 426.948 1383.93C377.21 1303.53 352.43 1210.19 355.742 1115.71C359.053 1021.23 390.307 929.848 445.552 853.129C500.796 776.41 577.549 717.796 666.106 684.699C754.663 651.602 851.045 645.508 943.065 667.188C1035.09 688.868 1118.61 737.349 1183.08 806.498L833.448 1132.45L1159.4 1482.08Z" stroke="black" stroke-width="2" mask="url(#path-8-outside-2_616_1074)"/>
<path d="M922.949 860.19C950.822 861.167 974.21 839.363 975.187 811.489C976.164 783.616 954.36 760.229 926.487 759.252C898.614 758.275 875.226 780.079 874.249 807.952C873.272 835.825 895.076 859.213 922.949 860.19Z" fill="white" stroke="black"/>
<path d="M590.567 1711.36H599.495L610.169 1730.67H610.596L621.27 1711.36H630.198L614.324 1738.72V1755H606.441V1738.72L590.567 1711.36ZM689.67 1733.18C689.67 1737.88 688.79 1741.91 687.028 1745.26C685.281 1748.6 682.895 1751.16 679.869 1752.93C676.858 1754.71 673.442 1755.6 669.621 1755.6C665.8 1755.6 662.376 1754.71 659.351 1752.93C656.339 1751.14 653.953 1748.58 652.192 1745.24C650.445 1741.89 649.571 1737.87 649.571 1733.18C649.571 1728.48 650.445 1724.46 652.192 1721.12C653.953 1717.77 656.339 1715.21 659.351 1713.43C662.376 1711.65 665.8 1710.77 669.621 1710.77C673.442 1710.77 676.858 1711.65 679.869 1713.43C682.895 1715.21 685.281 1717.77 687.028 1721.12C688.79 1724.46 689.67 1728.48 689.67 1733.18ZM681.723 1733.18C681.723 1729.87 681.205 1727.08 680.168 1724.81C679.145 1722.52 677.724 1720.8 675.906 1719.63C674.088 1718.45 671.993 1717.86 669.621 1717.86C667.249 1717.86 665.153 1718.45 663.335 1719.63C661.517 1720.8 660.089 1722.52 659.053 1724.81C658.03 1727.08 657.518 1729.87 657.518 1733.18C657.518 1736.49 658.03 1739.29 659.053 1741.58C660.089 1743.85 661.517 1745.58 663.335 1746.75C665.153 1747.92 667.249 1748.5 669.621 1748.5C671.993 1748.5 674.088 1747.92 675.906 1746.75C677.724 1745.58 679.145 1743.85 680.168 1741.58C681.205 1739.29 681.723 1736.49 681.723 1733.18ZM739.534 1711.36H747.439V1739.87C747.439 1743 746.7 1745.75 745.223 1748.12C743.76 1750.49 741.7 1752.34 739.044 1753.68C736.387 1755 733.284 1755.66 729.733 1755.66C726.167 1755.66 723.056 1755 720.4 1753.68C717.744 1752.34 715.684 1750.49 714.221 1748.12C712.758 1745.75 712.027 1743 712.027 1739.87V1711.36H719.931V1739.21C719.931 1741.03 720.329 1742.65 721.125 1744.07C721.934 1745.49 723.071 1746.61 724.534 1747.41C725.997 1748.21 727.73 1748.61 729.733 1748.61C731.735 1748.61 733.468 1748.21 734.931 1747.41C736.409 1746.61 737.545 1745.49 738.341 1744.07C739.136 1742.65 739.534 1741.03 739.534 1739.21V1711.36ZM770.913 1755V1711.36H787.277C790.629 1711.36 793.442 1711.95 795.714 1713.11C798.001 1714.28 799.727 1715.91 800.892 1718.01C802.071 1720.1 802.661 1722.54 802.661 1725.32C802.661 1728.12 802.064 1730.55 800.871 1732.61C799.692 1734.65 797.952 1736.24 795.651 1737.36C793.349 1738.47 790.523 1739.02 787.17 1739.02H775.516V1732.46H786.105C788.065 1732.46 789.67 1732.19 790.92 1731.65C792.17 1731.09 793.094 1730.29 793.69 1729.24C794.301 1728.17 794.607 1726.87 794.607 1725.32C794.607 1723.77 794.301 1722.45 793.69 1721.36C793.08 1720.25 792.149 1719.41 790.899 1718.84C789.649 1718.26 788.037 1717.97 786.062 1717.97H778.818V1755H770.913ZM793.456 1735.23L804.259 1755H795.438L784.827 1735.23H793.456ZM854.585 1755V1711.36H871.29C874.443 1711.36 877.064 1711.86 879.152 1712.86C881.254 1713.84 882.824 1715.18 883.861 1716.88C884.912 1718.59 885.438 1720.52 885.438 1722.68C885.438 1724.45 885.097 1725.97 884.415 1727.24C883.733 1728.49 882.817 1729.5 881.666 1730.28C880.516 1731.07 879.23 1731.63 877.81 1731.97V1732.39C879.358 1732.48 880.842 1732.95 882.263 1733.82C883.697 1734.67 884.869 1735.88 885.778 1737.44C886.688 1739.01 887.142 1740.89 887.142 1743.11C887.142 1745.37 886.595 1747.4 885.501 1749.2C884.408 1750.99 882.76 1752.41 880.558 1753.44C878.357 1754.48 875.587 1755 872.249 1755H854.585ZM862.49 1748.39H870.991C873.861 1748.39 875.928 1747.85 877.192 1746.75C878.47 1745.65 879.109 1744.23 879.109 1742.49C879.109 1741.2 878.79 1740.04 878.151 1739C877.511 1737.95 876.602 1737.12 875.423 1736.53C874.244 1735.92 872.838 1735.61 871.205 1735.61H862.49V1748.39ZM862.49 1729.92H870.31C871.673 1729.92 872.902 1729.67 873.996 1729.18C875.089 1728.66 875.949 1727.95 876.574 1727.02C877.213 1726.09 877.533 1724.98 877.533 1723.7C877.533 1722.01 876.936 1720.62 875.743 1719.52C874.564 1718.43 872.81 1717.88 870.48 1717.88H862.49V1729.92ZM908.902 1755V1711.36H937.282V1717.99H916.806V1729.84H935.812V1736.46H916.806V1748.37H937.453V1755H908.902ZM960.23 1755V1711.36H968.135V1748.37H987.353V1755H960.23ZM1009.1 1755V1711.36H1017V1748.37H1036.22V1755H1009.1ZM1054.98 1711.36H1063.91L1074.58 1730.67H1075.01L1085.68 1711.36H1094.61L1078.74 1738.72V1755H1070.85V1738.72L1054.98 1711.36ZM1144.86 1755V1711.36H1152.76V1731.41H1153.3L1170.32 1711.36H1179.97L1163.1 1730.94L1180.12 1755H1170.62L1157.6 1736.29L1152.76 1742V1755H1144.86ZM1236.21 1711.36V1755H1229.18L1208.61 1725.28H1208.25V1755H1200.35V1711.36H1207.42L1227.96 1741.11H1228.34V1711.36H1236.21ZM1298.69 1733.18C1298.69 1737.88 1297.81 1741.91 1296.05 1745.26C1294.3 1748.6 1291.92 1751.16 1288.89 1752.93C1285.88 1754.71 1282.47 1755.6 1278.64 1755.6C1274.82 1755.6 1271.4 1754.71 1268.37 1752.93C1265.36 1751.14 1262.98 1748.58 1261.22 1745.24C1259.47 1741.89 1258.59 1737.87 1258.59 1733.18C1258.59 1728.48 1259.47 1724.46 1261.22 1721.12C1262.98 1717.77 1265.36 1715.21 1268.37 1713.43C1271.4 1711.65 1274.82 1710.77 1278.64 1710.77C1282.47 1710.77 1285.88 1711.65 1288.89 1713.43C1291.92 1715.21 1294.3 1717.77 1296.05 1721.12C1297.81 1724.46 1298.69 1728.48 1298.69 1733.18ZM1290.75 1733.18C1290.75 1729.87 1290.23 1727.08 1289.19 1724.81C1288.17 1722.52 1286.75 1720.8 1284.93 1719.63C1283.11 1718.45 1281.02 1717.86 1278.64 1717.86C1276.27 1717.86 1274.18 1718.45 1272.36 1719.63C1270.54 1720.8 1269.11 1722.52 1268.08 1724.81C1267.05 1727.08 1266.54 1729.87 1266.54 1733.18C1266.54 1736.49 1267.05 1739.29 1268.08 1741.58C1269.11 1743.85 1270.54 1745.58 1272.36 1746.75C1274.18 1747.92 1276.27 1748.5 1278.64 1748.5C1281.02 1748.5 1283.11 1747.92 1284.93 1746.75C1286.75 1745.58 1288.17 1743.85 1289.19 1741.58C1290.23 1739.29 1290.75 1736.49 1290.75 1733.18ZM1330.23 1755L1317.92 1711.36H1326.42L1334.28 1743.43H1334.69L1343.08 1711.36H1350.82L1359.23 1743.45H1359.62L1367.48 1711.36H1375.98L1363.66 1755H1355.87L1347.13 1724.38H1346.79L1338.03 1755H1330.23ZM1420.06 1723.36C1419.86 1721.5 1419.02 1720.05 1417.54 1719.01C1416.08 1717.98 1414.18 1717.46 1411.83 1717.46C1410.19 1717.46 1408.77 1717.71 1407.59 1718.2C1406.41 1718.7 1405.51 1719.37 1404.89 1720.23C1404.26 1721.08 1403.94 1722.05 1403.93 1723.15C1403.93 1724.06 1404.13 1724.84 1404.55 1725.51C1404.97 1726.18 1405.55 1726.75 1406.27 1727.22C1407 1727.67 1407.8 1728.05 1408.68 1728.37C1409.56 1728.68 1410.45 1728.94 1411.34 1729.15L1415.43 1730.18C1417.08 1730.56 1418.67 1731.08 1420.19 1731.73C1421.72 1732.39 1423.09 1733.21 1424.3 1734.2C1425.52 1735.2 1426.49 1736.4 1427.2 1737.81C1427.91 1739.21 1428.26 1740.86 1428.26 1742.75C1428.26 1745.31 1427.61 1747.56 1426.3 1749.5C1424.99 1751.43 1423.1 1752.95 1420.63 1754.04C1418.18 1755.12 1415.2 1755.66 1411.71 1755.66C1408.31 1755.66 1405.36 1755.13 1402.86 1754.08C1400.38 1753.03 1398.43 1751.5 1397.02 1749.48C1395.63 1747.46 1394.88 1745.01 1394.77 1742.11H1402.54C1402.66 1743.63 1403.13 1744.89 1403.95 1745.9C1404.77 1746.91 1405.85 1747.66 1407.17 1748.16C1408.5 1748.66 1409.99 1748.91 1411.64 1748.91C1413.36 1748.91 1414.87 1748.65 1416.16 1748.14C1417.47 1747.61 1418.49 1746.89 1419.23 1745.97C1419.97 1745.03 1420.34 1743.93 1420.36 1742.68C1420.34 1741.55 1420.01 1740.61 1419.35 1739.87C1418.7 1739.12 1417.78 1738.49 1416.61 1738C1415.44 1737.49 1414.08 1737.03 1412.51 1736.63L1407.55 1735.36C1403.96 1734.43 1401.12 1733.03 1399.03 1731.16C1396.95 1729.27 1395.92 1726.76 1395.92 1723.64C1395.92 1721.07 1396.61 1718.81 1398 1716.88C1399.41 1714.95 1401.32 1713.45 1403.74 1712.39C1406.15 1711.31 1408.89 1710.77 1411.94 1710.77C1415.04 1710.77 1417.75 1711.31 1420.08 1712.39C1422.42 1713.45 1424.26 1714.94 1425.6 1716.84C1426.93 1718.73 1427.62 1720.9 1427.66 1723.36H1420.06ZM1479.96 1755V1711.36H1496.66C1499.81 1711.36 1502.44 1711.86 1504.52 1712.86C1506.63 1713.84 1508.19 1715.18 1509.23 1716.88C1510.28 1718.59 1510.81 1720.52 1510.81 1722.68C1510.81 1724.45 1510.47 1725.97 1509.79 1727.24C1509.1 1728.49 1508.19 1729.5 1507.04 1730.28C1505.89 1731.07 1504.6 1731.63 1503.18 1731.97V1732.39C1504.73 1732.48 1506.21 1732.95 1507.63 1733.82C1509.07 1734.67 1510.24 1735.88 1511.15 1737.44C1512.06 1739.01 1512.51 1740.89 1512.51 1743.11C1512.51 1745.37 1511.97 1747.4 1510.87 1749.2C1509.78 1750.99 1508.13 1752.41 1505.93 1753.44C1503.73 1754.48 1500.96 1755 1497.62 1755H1479.96ZM1487.86 1748.39H1496.36C1499.23 1748.39 1501.3 1747.85 1502.56 1746.75C1503.84 1745.65 1504.48 1744.23 1504.48 1742.49C1504.48 1741.2 1504.16 1740.04 1503.52 1739C1502.88 1737.95 1501.97 1737.12 1500.79 1736.53C1499.62 1735.92 1498.21 1735.61 1496.58 1735.61H1487.86V1748.39ZM1487.86 1729.92H1495.68C1497.04 1729.92 1498.27 1729.67 1499.37 1729.18C1500.46 1728.66 1501.32 1727.95 1501.94 1727.02C1502.58 1726.09 1502.9 1724.98 1502.9 1723.7C1502.9 1722.01 1502.31 1720.62 1501.11 1719.52C1499.94 1718.43 1498.18 1717.88 1495.85 1717.88H1487.86V1729.92ZM1534.27 1755V1711.36H1562.65V1717.99H1542.18V1729.84H1561.18V1736.46H1542.18V1748.37H1562.82V1755H1534.27ZM1609.32 1723.36C1609.12 1721.5 1608.28 1720.05 1606.8 1719.01C1605.34 1717.98 1603.43 1717.46 1601.09 1717.46C1599.44 1717.46 1598.03 1717.71 1596.85 1718.2C1595.67 1718.7 1594.77 1719.37 1594.14 1720.23C1593.52 1721.08 1593.2 1722.05 1593.19 1723.15C1593.19 1724.06 1593.39 1724.84 1593.8 1725.51C1594.23 1726.18 1594.81 1726.75 1595.53 1727.22C1596.25 1727.67 1597.06 1728.05 1597.94 1728.37C1598.82 1728.68 1599.71 1728.94 1600.6 1729.15L1604.69 1730.18C1606.34 1730.56 1607.92 1731.08 1609.44 1731.73C1610.98 1732.39 1612.35 1733.21 1613.56 1734.2C1614.78 1735.2 1615.74 1736.4 1616.45 1737.81C1617.16 1739.21 1617.52 1740.86 1617.52 1742.75C1617.52 1745.31 1616.87 1747.56 1615.56 1749.5C1614.25 1751.43 1612.36 1752.95 1609.89 1754.04C1607.43 1755.12 1604.46 1755.66 1600.96 1755.66C1597.57 1755.66 1594.62 1755.13 1592.12 1754.08C1589.63 1753.03 1587.69 1751.5 1586.28 1749.48C1584.89 1747.46 1584.14 1745.01 1584.02 1742.11H1591.8C1591.91 1743.63 1592.38 1744.89 1593.21 1745.9C1594.03 1746.91 1595.1 1747.66 1596.42 1748.16C1597.76 1748.66 1599.25 1748.91 1600.9 1748.91C1602.62 1748.91 1604.12 1748.65 1605.42 1748.14C1606.72 1747.61 1607.75 1746.89 1608.48 1745.97C1609.22 1745.03 1609.6 1743.93 1609.61 1742.68C1609.6 1741.55 1609.27 1740.61 1608.61 1739.87C1607.96 1739.12 1607.04 1738.49 1605.86 1738C1604.7 1737.49 1603.34 1737.03 1601.77 1736.63L1596.81 1735.36C1593.21 1734.43 1590.37 1733.03 1588.29 1731.16C1586.21 1729.27 1585.17 1726.76 1585.17 1723.64C1585.17 1721.07 1585.87 1718.81 1587.26 1716.88C1588.67 1714.95 1590.58 1713.45 1592.99 1712.39C1595.41 1711.31 1598.14 1710.77 1601.2 1710.77C1604.29 1710.77 1607.01 1711.31 1609.34 1712.39C1611.68 1713.45 1613.52 1714.94 1614.86 1716.84C1616.19 1718.73 1616.88 1720.9 1616.92 1723.36H1609.32ZM1637.53 1717.99V1711.36H1672.35V1717.99H1658.86V1755H1651.02V1717.99H1637.53Z" fill="black"/>
<path d="M590.567 1711.36V1710.36H588.831L589.702 1711.87L590.567 1711.36ZM599.495 1711.36L600.37 1710.88L600.084 1710.36H599.495V1711.36ZM610.169 1730.67L609.294 1731.15L609.58 1731.67H610.169V1730.67ZM610.596 1730.67V1731.67H611.185L611.471 1731.15L610.596 1730.67ZM621.27 1711.36V1710.36H620.681L620.395 1710.88L621.27 1711.36ZM630.198 1711.36L631.063 1711.87L631.934 1710.36H630.198V1711.36ZM614.324 1738.72L613.459 1738.22L613.324 1738.45V1738.72H614.324ZM614.324 1755V1756H615.324V1755H614.324ZM606.441 1755H605.441V1756H606.441V1755ZM606.441 1738.72H607.441V1738.45L607.306 1738.22L606.441 1738.72ZM590.567 1712.36H599.495V1710.36H590.567V1712.36ZM598.62 1711.85L609.294 1731.15L611.045 1730.18L600.37 1710.88L598.62 1711.85ZM610.169 1731.67H610.596V1729.67H610.169V1731.67ZM611.471 1731.15L622.145 1711.85L620.395 1710.88L609.72 1730.18L611.471 1731.15ZM621.27 1712.36H630.198V1710.36H621.27V1712.36ZM629.333 1710.86L613.459 1738.22L615.189 1739.22L631.063 1711.87L629.333 1710.86ZM613.324 1738.72V1755H615.324V1738.72H613.324ZM614.324 1754H606.441V1756H614.324V1754ZM607.441 1755V1738.72H605.441V1755H607.441ZM607.306 1738.22L591.432 1710.86L589.702 1711.87L605.576 1739.22L607.306 1738.22ZM687.028 1745.26L686.143 1744.8L686.142 1744.8L687.028 1745.26ZM679.869 1752.93L679.363 1752.07L679.361 1752.07L679.869 1752.93ZM659.351 1752.93L658.84 1753.79L658.845 1753.8L659.351 1752.93ZM652.192 1745.24L651.305 1745.7L651.307 1745.71L652.192 1745.24ZM652.192 1721.12L651.307 1720.66L651.306 1720.66L652.192 1721.12ZM659.351 1713.43L658.845 1712.57L658.843 1712.57L659.351 1713.43ZM679.869 1713.43L679.361 1714.29L679.363 1714.29L679.869 1713.43ZM687.028 1721.12L686.142 1721.58L686.144 1721.59L687.028 1721.12ZM680.168 1724.81L679.255 1725.22L679.258 1725.22L680.168 1724.81ZM675.906 1719.63L675.362 1720.47L675.367 1720.47L675.906 1719.63ZM663.335 1719.63L663.875 1720.47L663.879 1720.47L663.335 1719.63ZM659.053 1724.81L658.142 1724.4L658.141 1724.4L659.053 1724.81ZM659.053 1741.58L658.14 1741.98L658.143 1741.99L659.053 1741.58ZM663.335 1746.75L662.791 1747.59L662.796 1747.6L663.335 1746.75ZM675.906 1746.75L676.446 1747.6L676.45 1747.59L675.906 1746.75ZM680.168 1741.58L679.257 1741.16L679.256 1741.17L680.168 1741.58ZM688.67 1733.18C688.67 1737.76 687.813 1741.62 686.143 1744.8L687.914 1745.73C689.766 1742.2 690.67 1738.01 690.67 1733.18H688.67ZM686.142 1744.8C684.475 1747.98 682.215 1750.4 679.363 1752.07L680.375 1753.8C683.574 1751.92 686.087 1749.22 687.914 1745.73L686.142 1744.8ZM679.361 1752.07C676.518 1753.75 673.28 1754.6 669.621 1754.6V1756.6C673.603 1756.6 677.198 1755.67 680.377 1753.79L679.361 1752.07ZM669.621 1754.6C665.961 1754.6 662.716 1753.75 659.857 1752.07L658.845 1753.8C662.037 1755.67 665.638 1756.6 669.621 1756.6V1754.6ZM659.862 1752.07C657.021 1750.39 654.759 1747.96 653.076 1744.77L651.307 1745.71C653.148 1749.2 655.658 1751.9 658.84 1753.79L659.862 1752.07ZM653.079 1744.78C651.422 1741.6 650.571 1737.75 650.571 1733.18H648.571C648.571 1737.99 649.468 1742.18 651.305 1745.7L653.079 1744.78ZM650.571 1733.18C650.571 1728.6 651.422 1724.75 653.078 1721.59L651.306 1720.66C649.467 1724.17 648.571 1728.36 648.571 1733.18H650.571ZM653.077 1721.59C654.759 1718.39 657.021 1715.97 659.859 1714.29L658.843 1712.57C655.658 1714.45 653.147 1717.15 651.307 1720.66L653.077 1721.59ZM659.857 1714.29C662.716 1712.62 665.961 1711.77 669.621 1711.77V1709.77C665.638 1709.77 662.037 1710.69 658.845 1712.57L659.857 1714.29ZM669.621 1711.77C673.28 1711.77 676.518 1712.62 679.361 1714.29L680.377 1712.57C677.198 1710.69 673.603 1709.77 669.621 1709.77V1711.77ZM679.363 1714.29C682.214 1715.97 684.474 1718.39 686.142 1721.58L687.915 1720.66C686.088 1717.15 683.576 1714.45 680.375 1712.57L679.363 1714.29ZM686.144 1721.59C687.813 1724.75 688.67 1728.6 688.67 1733.18H690.67C690.67 1728.36 689.767 1724.17 687.913 1720.66L686.144 1721.59ZM682.723 1733.18C682.723 1729.77 682.19 1726.83 681.077 1724.39L679.258 1725.22C680.219 1727.33 680.723 1729.97 680.723 1733.18H682.723ZM681.08 1724.4C679.991 1721.96 678.453 1720.07 676.446 1718.79L675.367 1720.47C676.996 1721.52 678.299 1723.08 679.255 1725.22L681.08 1724.4ZM676.45 1718.79C674.455 1717.5 672.167 1716.86 669.621 1716.86V1718.86C671.819 1718.86 673.721 1719.41 675.362 1720.47L676.45 1718.79ZM669.621 1716.86C667.075 1716.86 664.787 1717.5 662.791 1718.79L663.879 1720.47C665.52 1719.41 667.423 1718.86 669.621 1718.86V1716.86ZM662.796 1718.79C660.79 1720.07 659.245 1721.96 658.142 1724.4L659.963 1725.22C660.934 1723.08 662.244 1721.52 663.875 1720.47L662.796 1718.79ZM658.141 1724.4C657.044 1726.83 656.518 1729.77 656.518 1733.18H658.518C658.518 1729.97 659.016 1727.33 659.964 1725.22L658.141 1724.4ZM656.518 1733.18C656.518 1736.59 657.044 1739.54 658.14 1741.98L659.965 1741.17C659.015 1739.04 658.518 1736.39 658.518 1733.18H656.518ZM658.143 1741.99C659.246 1744.41 660.79 1746.3 662.791 1747.59L663.879 1745.92C662.244 1744.85 660.933 1743.29 659.962 1741.16L658.143 1741.99ZM662.796 1747.6C664.791 1748.87 667.077 1749.5 669.621 1749.5V1747.5C667.42 1747.5 665.516 1746.96 663.875 1745.91L662.796 1747.6ZM669.621 1749.5C672.165 1749.5 674.451 1748.87 676.446 1747.6L675.367 1745.91C673.725 1746.96 671.821 1747.5 669.621 1747.5V1749.5ZM676.45 1747.59C678.453 1746.29 679.99 1744.41 681.08 1741.99L679.256 1741.17C678.3 1743.29 676.996 1744.86 675.362 1745.92L676.45 1747.59ZM681.078 1741.99C682.19 1739.54 682.723 1736.59 682.723 1733.18H680.723C680.723 1736.39 680.219 1739.04 679.257 1741.16L681.078 1741.99ZM739.534 1711.36V1710.36H738.534V1711.36H739.534ZM747.439 1711.36H748.439V1710.36H747.439V1711.36ZM745.223 1748.12L744.374 1747.59L744.372 1747.59L745.223 1748.12ZM739.044 1753.68L739.489 1754.57L739.493 1754.57L739.044 1753.68ZM720.4 1753.68L719.951 1754.57L719.955 1754.57L720.4 1753.68ZM714.221 1748.12L715.072 1747.59L715.072 1747.59L714.221 1748.12ZM712.027 1711.36V1710.36H711.027V1711.36H712.027ZM719.931 1711.36H720.931V1710.36H719.931V1711.36ZM721.125 1744.07L720.252 1744.56L720.256 1744.56L721.125 1744.07ZM724.534 1747.41L724.05 1748.29L724.056 1748.29L724.534 1747.41ZM734.931 1747.41L735.409 1748.29L735.412 1748.29L734.931 1747.41ZM738.341 1744.07L739.213 1744.56L739.213 1744.56L738.341 1744.07ZM739.534 1712.36H747.439V1710.36H739.534V1712.36ZM746.439 1711.36V1739.87H748.439V1711.36H746.439ZM746.439 1739.87C746.439 1742.83 745.741 1745.39 744.374 1747.59L746.072 1748.65C747.659 1746.1 748.439 1743.16 748.439 1739.87H746.439ZM744.372 1747.59C743.012 1749.8 741.097 1751.53 738.595 1752.79L739.493 1754.57C742.303 1753.16 744.507 1751.18 746.074 1748.64L744.372 1747.59ZM738.598 1752.78C736.105 1754.02 733.159 1754.66 729.733 1754.66V1756.66C733.408 1756.66 736.67 1755.98 739.489 1754.57L738.598 1752.78ZM729.733 1754.66C726.291 1754.66 723.338 1754.02 720.846 1752.78L719.955 1754.57C722.775 1755.98 726.044 1756.66 729.733 1756.66V1754.66ZM720.849 1752.79C718.347 1751.53 716.432 1749.8 715.072 1747.59L713.37 1748.64C714.937 1751.18 717.141 1753.16 719.951 1754.57L720.849 1752.79ZM715.072 1747.59C713.718 1745.4 713.027 1742.83 713.027 1739.87H711.027C711.027 1743.16 711.798 1746.09 713.37 1748.64L715.072 1747.59ZM713.027 1739.87V1711.36H711.027V1739.87H713.027ZM712.027 1712.36H719.931V1710.36H712.027V1712.36ZM718.931 1711.36V1739.21H720.931V1711.36H718.931ZM718.931 1739.21C718.931 1741.18 719.364 1742.97 720.252 1744.56L721.997 1743.58C721.295 1742.33 720.931 1740.88 720.931 1739.21H718.931ZM720.256 1744.56C721.159 1746.15 722.43 1747.39 724.05 1748.29L725.018 1746.54C723.712 1745.82 722.71 1744.83 721.993 1743.57L720.256 1744.56ZM724.056 1748.29C725.693 1749.18 727.597 1749.61 729.733 1749.61V1747.61C727.863 1747.61 726.301 1747.24 725.011 1746.54L724.056 1748.29ZM729.733 1749.61C731.869 1749.61 733.772 1749.18 735.409 1748.29L734.454 1746.54C733.164 1747.24 731.602 1747.61 729.733 1747.61V1749.61ZM735.412 1748.29C737.048 1747.4 738.323 1746.15 739.213 1744.56L737.468 1743.58C736.768 1744.83 735.77 1745.82 734.451 1746.54L735.412 1748.29ZM739.213 1744.56C740.102 1742.97 740.534 1741.18 740.534 1739.21H738.534C738.534 1740.88 738.17 1742.33 737.468 1743.58L739.213 1744.56ZM740.534 1739.21V1711.36H738.534V1739.21H740.534ZM770.913 1755H769.913V1756H770.913V1755ZM770.913 1711.36V1710.36H769.913V1711.36H770.913ZM795.714 1713.11L795.258 1714L795.261 1714L795.714 1713.11ZM800.892 1718.01L800.017 1718.5L800.021 1718.5L800.892 1718.01ZM800.871 1732.61L800.005 1732.11L800.004 1732.11L800.871 1732.61ZM795.651 1737.36L796.084 1738.26L796.089 1738.26L795.651 1737.36ZM775.516 1739.02H774.516V1740.02H775.516V1739.02ZM775.516 1732.46V1731.46H774.516V1732.46H775.516ZM790.92 1731.65L791.317 1732.57L791.326 1732.56L790.92 1731.65ZM793.69 1729.24L792.823 1728.74L792.821 1728.75L793.69 1729.24ZM793.69 1721.36L792.815 1721.84L792.817 1721.84L793.69 1721.36ZM790.899 1718.84L790.477 1719.75L790.485 1719.75L790.899 1718.84ZM778.818 1717.97V1716.97H777.818V1717.97H778.818ZM778.818 1755V1756H779.818V1755H778.818ZM793.456 1735.23L794.334 1734.75L794.049 1734.23H793.456V1735.23ZM804.259 1755V1756H805.944L805.136 1754.52L804.259 1755ZM795.438 1755L794.556 1755.47L794.839 1756H795.438V1755ZM784.827 1735.23V1734.23H783.155L783.946 1735.7L784.827 1735.23ZM771.913 1755V1711.36H769.913V1755H771.913ZM770.913 1712.36H787.277V1710.36H770.913V1712.36ZM787.277 1712.36C790.518 1712.36 793.164 1712.93 795.258 1714L796.171 1712.22C793.72 1710.96 790.74 1710.36 787.277 1710.36V1712.36ZM795.261 1714C797.383 1715.08 798.956 1716.58 800.017 1718.5L801.767 1717.53C800.499 1715.24 798.62 1713.47 796.168 1712.22L795.261 1714ZM800.021 1718.5C801.103 1720.42 801.661 1722.68 801.661 1725.32H803.661C803.661 1722.39 803.039 1719.78 801.763 1717.52L800.021 1718.5ZM801.661 1725.32C801.661 1727.97 801.096 1730.22 800.005 1732.11L801.736 1733.11C803.032 1730.87 803.661 1728.26 803.661 1725.32H801.661ZM800.004 1732.11C798.933 1733.97 797.35 1735.42 795.212 1736.46L796.089 1738.26C798.554 1737.05 800.45 1735.34 801.737 1733.11L800.004 1732.11ZM795.217 1736.46C793.086 1737.48 790.418 1738.02 787.17 1738.02V1740.02C790.628 1740.02 793.612 1739.45 796.084 1738.26L795.217 1736.46ZM787.17 1738.02H775.516V1740.02H787.17V1738.02ZM776.516 1739.02V1732.46H774.516V1739.02H776.516ZM775.516 1733.46H786.105V1731.46H775.516V1733.46ZM786.105 1733.46C788.146 1733.46 789.899 1733.18 791.317 1732.57L790.524 1730.73C789.442 1731.2 787.984 1731.46 786.105 1731.46V1733.46ZM791.326 1732.56C792.745 1731.93 793.844 1731 794.56 1729.73L792.821 1728.75C792.343 1729.59 791.596 1730.25 790.515 1730.73L791.326 1732.56ZM794.558 1729.74C795.275 1728.49 795.607 1727 795.607 1725.32H793.607C793.607 1726.74 793.327 1727.86 792.823 1728.74L794.558 1729.74ZM795.607 1725.32C795.607 1723.64 795.275 1722.14 794.563 1720.87L792.817 1721.84C793.327 1722.76 793.607 1723.9 793.607 1725.32H795.607ZM794.566 1720.87C793.842 1719.56 792.741 1718.58 791.313 1717.93L790.485 1719.75C791.557 1720.24 792.317 1720.94 792.815 1721.84L794.566 1720.87ZM791.321 1717.94C789.895 1717.27 788.124 1716.97 786.062 1716.97V1718.97C787.949 1718.97 789.403 1719.25 790.477 1719.75L791.321 1717.94ZM786.062 1716.97H778.818V1718.97H786.062V1716.97ZM777.818 1717.97V1755H779.818V1717.97H777.818ZM778.818 1754H770.913V1756H778.818V1754ZM792.578 1735.71L803.381 1755.48L805.136 1754.52L794.334 1734.75L792.578 1735.71ZM804.259 1754H795.438V1756H804.259V1754ZM796.319 1754.53L785.708 1734.75L783.946 1735.7L794.556 1755.47L796.319 1754.53ZM784.827 1736.23H793.456V1734.23H784.827V1736.23ZM854.585 1755H853.585V1756H854.585V1755ZM854.585 1711.36V1710.36H853.585V1711.36H854.585ZM879.152 1712.86L878.722 1713.76L878.729 1713.76L879.152 1712.86ZM883.861 1716.88L883.006 1717.4L883.01 1717.41L883.861 1716.88ZM884.415 1727.24L885.293 1727.72L885.295 1727.71L884.415 1727.24ZM881.666 1730.28L881.104 1729.46L881.104 1729.46L881.666 1730.28ZM877.81 1731.97L877.576 1730.99L876.81 1731.18V1731.97H877.81ZM877.81 1732.39H876.81V1733.34L877.755 1733.39L877.81 1732.39ZM882.263 1733.82L881.742 1734.67L881.752 1734.68L882.263 1733.82ZM885.778 1737.44L884.914 1737.95L884.914 1737.95L885.778 1737.44ZM885.501 1749.2L886.355 1749.73L886.357 1749.72L885.501 1749.2ZM862.49 1748.39H861.49V1749.39H862.49V1748.39ZM877.192 1746.75L877.846 1747.51L877.847 1747.51L877.192 1746.75ZM878.151 1739L877.296 1739.52L877.299 1739.52L878.151 1739ZM875.423 1736.53L874.963 1737.41L874.972 1737.42L875.423 1736.53ZM862.49 1735.61V1734.61H861.49V1735.61H862.49ZM862.49 1729.92H861.49V1730.92H862.49V1729.92ZM873.996 1729.18L874.41 1730.09L874.419 1730.08L873.996 1729.18ZM876.574 1727.02L875.748 1726.46L875.746 1726.46L876.574 1727.02ZM875.743 1719.52L875.063 1720.26L875.067 1720.26L875.743 1719.52ZM862.49 1717.88V1716.88H861.49V1717.88H862.49ZM855.585 1755V1711.36H853.585V1755H855.585ZM854.585 1712.36H871.29V1710.36H854.585V1712.36ZM871.29 1712.36C874.346 1712.36 876.808 1712.85 878.722 1713.76L879.582 1711.95C877.32 1710.88 874.541 1710.36 871.29 1710.36V1712.36ZM878.729 1713.76C880.683 1714.67 882.088 1715.89 883.006 1717.4L884.715 1716.36C883.56 1714.46 881.826 1713 879.575 1711.95L878.729 1713.76ZM883.01 1717.41C883.956 1718.94 884.438 1720.69 884.438 1722.68H886.438C886.438 1720.35 885.868 1718.23 884.712 1716.36L883.01 1717.41ZM884.438 1722.68C884.438 1724.33 884.121 1725.67 883.535 1726.76L885.295 1727.71C886.072 1726.27 886.438 1724.58 886.438 1722.68H884.438ZM883.537 1726.76C882.929 1727.87 882.12 1728.77 881.104 1729.46L882.228 1731.11C883.513 1730.24 884.537 1729.1 885.293 1727.72L883.537 1726.76ZM881.104 1729.46C880.059 1730.17 878.885 1730.68 877.576 1730.99L878.043 1732.94C879.575 1732.57 880.973 1731.96 882.228 1731.11L881.104 1729.46ZM876.81 1731.97V1732.39H878.81V1731.97H876.81ZM877.755 1733.39C879.126 1733.47 880.452 1733.89 881.742 1734.67L882.784 1732.97C881.233 1732.02 879.59 1731.49 877.865 1731.39L877.755 1733.39ZM881.752 1734.68C883.028 1735.44 884.083 1736.52 884.914 1737.95L886.643 1736.94C885.655 1735.24 884.367 1733.91 882.774 1732.96L881.752 1734.68ZM884.914 1737.95C885.716 1739.32 886.142 1741.03 886.142 1743.11H888.142C888.142 1740.76 887.659 1738.69 886.643 1736.94L884.914 1737.95ZM886.142 1743.11C886.142 1745.2 885.639 1747.05 884.646 1748.69L886.357 1749.72C887.552 1747.75 888.142 1745.54 888.142 1743.11H886.142ZM884.648 1748.68C883.672 1750.28 882.186 1751.57 880.132 1752.54L880.984 1754.35C883.334 1753.24 885.144 1751.71 886.355 1749.73L884.648 1748.68ZM880.132 1752.54C878.104 1753.5 875.491 1754 872.249 1754V1756C875.682 1756 878.609 1755.47 880.984 1754.35L880.132 1752.54ZM872.249 1754H854.585V1756H872.249V1754ZM862.49 1749.39H870.991V1747.39H862.49V1749.39ZM870.991 1749.39C873.944 1749.39 876.309 1748.84 877.846 1747.51L876.537 1746C875.546 1746.86 873.778 1747.39 870.991 1747.39V1749.39ZM877.847 1747.51C879.35 1746.21 880.109 1744.51 880.109 1742.49H878.109C878.109 1743.94 877.59 1745.09 876.537 1746L877.847 1747.51ZM880.109 1742.49C880.109 1741.03 879.744 1739.68 879.002 1738.47L877.299 1739.52C877.835 1740.39 878.109 1741.37 878.109 1742.49H880.109ZM879.005 1738.48C878.262 1737.26 877.207 1736.31 875.875 1735.63L874.972 1737.42C875.997 1737.94 876.761 1738.64 877.296 1739.52L879.005 1738.48ZM875.883 1735.64C874.533 1734.94 872.962 1734.61 871.205 1734.61V1736.61C872.714 1736.61 873.956 1736.89 874.963 1737.41L875.883 1735.64ZM871.205 1734.61H862.49V1736.61H871.205V1734.61ZM861.49 1735.61V1748.39H863.49V1735.61H861.49ZM862.49 1730.92H870.31V1728.92H862.49V1730.92ZM870.31 1730.92C871.797 1730.92 873.169 1730.65 874.41 1730.09L873.582 1728.27C872.635 1728.7 871.55 1728.92 870.31 1728.92V1730.92ZM874.419 1730.08C875.663 1729.5 876.667 1728.67 877.402 1727.58L875.746 1726.46C875.23 1727.23 874.516 1727.83 873.572 1728.27L874.419 1730.08ZM877.4 1727.59C878.167 1726.46 878.533 1725.15 878.533 1723.7H876.533C876.533 1724.8 876.26 1725.71 875.748 1726.46L877.4 1727.59ZM878.533 1723.7C878.533 1721.74 877.829 1720.08 876.419 1718.79L875.067 1720.26C876.044 1721.16 876.533 1722.28 876.533 1723.7H878.533ZM876.423 1718.79C874.991 1717.46 872.95 1716.88 870.48 1716.88V1718.88C872.67 1718.88 874.137 1719.4 875.063 1720.26L876.423 1718.79ZM870.48 1716.88H862.49V1718.88H870.48V1716.88ZM861.49 1717.88V1729.92H863.49V1717.88H861.49ZM908.902 1755H907.902V1756H908.902V1755ZM908.902 1711.36V1710.36H907.902V1711.36H908.902ZM937.282 1711.36H938.282V1710.36H937.282V1711.36ZM937.282 1717.99V1718.99H938.282V1717.99H937.282ZM916.806 1717.99V1716.99H915.806V1717.99H916.806ZM916.806 1729.84H915.806V1730.84H916.806V1729.84ZM935.812 1729.84H936.812V1728.84H935.812V1729.84ZM935.812 1736.46V1737.46H936.812V1736.46H935.812ZM916.806 1736.46V1735.46H915.806V1736.46H916.806ZM916.806 1748.37H915.806V1749.37H916.806V1748.37ZM937.453 1748.37H938.453V1747.37H937.453V1748.37ZM937.453 1755V1756H938.453V1755H937.453ZM909.902 1755V1711.36H907.902V1755H909.902ZM908.902 1712.36H937.282V1710.36H908.902V1712.36ZM936.282 1711.36V1717.99H938.282V1711.36H936.282ZM937.282 1716.99H916.806V1718.99H937.282V1716.99ZM915.806 1717.99V1729.84H917.806V1717.99H915.806ZM916.806 1730.84H935.812V1728.84H916.806V1730.84ZM934.812 1729.84V1736.46H936.812V1729.84H934.812ZM935.812 1735.46H916.806V1737.46H935.812V1735.46ZM915.806 1736.46V1748.37H917.806V1736.46H915.806ZM916.806 1749.37H937.453V1747.37H916.806V1749.37ZM936.453 1748.37V1755H938.453V1748.37H936.453ZM937.453 1754H908.902V1756H937.453V1754ZM960.23 1755H959.23V1756H960.23V1755ZM960.23 1711.36V1710.36H959.23V1711.36H960.23ZM968.135 1711.36H969.135V1710.36H968.135V1711.36ZM968.135 1748.37H967.135V1749.37H968.135V1748.37ZM987.353 1748.37H988.353V1747.37H987.353V1748.37ZM987.353 1755V1756H988.353V1755H987.353ZM961.23 1755V1711.36H959.23V1755H961.23ZM960.23 1712.36H968.135V1710.36H960.23V1712.36ZM967.135 1711.36V1748.37H969.135V1711.36H967.135ZM968.135 1749.37H987.353V1747.37H968.135V1749.37ZM986.353 1748.37V1755H988.353V1748.37H986.353ZM987.353 1754H960.23V1756H987.353V1754ZM1009.1 1755H1008.1V1756H1009.1V1755ZM1009.1 1711.36V1710.36H1008.1V1711.36H1009.1ZM1017 1711.36H1018V1710.36H1017V1711.36ZM1017 1748.37H1016V1749.37H1017V1748.37ZM1036.22 1748.37H1037.22V1747.37H1036.22V1748.37ZM1036.22 1755V1756H1037.22V1755H1036.22ZM1010.1 1755V1711.36H1008.1V1755H1010.1ZM1009.1 1712.36H1017V1710.36H1009.1V1712.36ZM1016 1711.36V1748.37H1018V1711.36H1016ZM1017 1749.37H1036.22V1747.37H1017V1749.37ZM1035.22 1748.37V1755H1037.22V1748.37H1035.22ZM1036.22 1754H1009.1V1756H1036.22V1754ZM1054.98 1711.36V1710.36H1053.24L1054.12 1711.87L1054.98 1711.36ZM1063.91 1711.36L1064.78 1710.88L1064.5 1710.36H1063.91V1711.36ZM1074.58 1730.67L1073.71 1731.15L1073.99 1731.67H1074.58V1730.67ZM1075.01 1730.67V1731.67H1075.6L1075.88 1731.15L1075.01 1730.67ZM1085.68 1711.36V1710.36H1085.09L1084.81 1710.88L1085.68 1711.36ZM1094.61 1711.36L1095.48 1711.87L1096.35 1710.36H1094.61V1711.36ZM1078.74 1738.72L1077.87 1738.22L1077.74 1738.45V1738.72H1078.74ZM1078.74 1755V1756H1079.74V1755H1078.74ZM1070.85 1755H1069.85V1756H1070.85V1755ZM1070.85 1738.72H1071.85V1738.45L1071.72 1738.22L1070.85 1738.72ZM1054.98 1712.36H1063.91V1710.36H1054.98V1712.36ZM1063.03 1711.85L1073.71 1731.15L1075.46 1730.18L1064.78 1710.88L1063.03 1711.85ZM1074.58 1731.67H1075.01V1729.67H1074.58V1731.67ZM1075.88 1731.15L1086.56 1711.85L1084.81 1710.88L1074.13 1730.18L1075.88 1731.15ZM1085.68 1712.36H1094.61V1710.36H1085.68V1712.36ZM1093.75 1710.86L1077.87 1738.22L1079.6 1739.22L1095.48 1711.87L1093.75 1710.86ZM1077.74 1738.72V1755H1079.74V1738.72H1077.74ZM1078.74 1754H1070.85V1756H1078.74V1754ZM1071.85 1755V1738.72H1069.85V1755H1071.85ZM1071.72 1738.22L1055.85 1710.86L1054.12 1711.87L1069.99 1739.22L1071.72 1738.22ZM1144.86 1755H1143.86V1756H1144.86V1755ZM1144.86 1711.36V1710.36H1143.86V1711.36H1144.86ZM1152.76 1711.36H1153.76V1710.36H1152.76V1711.36ZM1152.76 1731.41H1151.76V1732.41H1152.76V1731.41ZM1153.3 1731.41V1732.41H1153.76L1154.06 1732.06L1153.3 1731.41ZM1170.32 1711.36V1710.36H1169.86L1169.56 1710.72L1170.32 1711.36ZM1179.97 1711.36L1180.73 1712.02L1182.15 1710.36H1179.97V1711.36ZM1163.1 1730.94L1162.34 1730.29L1161.83 1730.88L1162.28 1731.52L1163.1 1730.94ZM1180.12 1755V1756H1182.05L1180.94 1754.42L1180.12 1755ZM1170.62 1755L1169.8 1755.57L1170.1 1756H1170.62V1755ZM1157.6 1736.29L1158.42 1735.72L1157.68 1734.65L1156.84 1735.65L1157.6 1736.29ZM1152.76 1742L1152 1741.36L1151.76 1741.64V1742H1152.76ZM1152.76 1755V1756H1153.76V1755H1152.76ZM1145.86 1755V1711.36H1143.86V1755H1145.86ZM1144.86 1712.36H1152.76V1710.36H1144.86V1712.36ZM1151.76 1711.36V1731.41H1153.76V1711.36H1151.76ZM1152.76 1732.41H1153.3V1730.41H1152.76V1732.41ZM1154.06 1732.06L1171.08 1712.01L1169.56 1710.72L1152.53 1730.77L1154.06 1732.06ZM1170.32 1712.36H1179.97V1710.36H1170.32V1712.36ZM1179.21 1710.71L1162.34 1730.29L1163.85 1731.6L1180.73 1712.02L1179.21 1710.71ZM1162.28 1731.52L1179.31 1755.58L1180.94 1754.42L1163.91 1730.37L1162.28 1731.52ZM1180.12 1754H1170.62V1756H1180.12V1754ZM1171.44 1754.43L1158.42 1735.72L1156.78 1736.86L1169.8 1755.57L1171.44 1754.43ZM1156.84 1735.65L1152 1741.36L1153.53 1742.65L1158.36 1736.94L1156.84 1735.65ZM1151.76 1742V1755H1153.76V1742H1151.76ZM1152.76 1754H1144.86V1756H1152.76V1754ZM1236.21 1711.36H1237.21V1710.36H1236.21V1711.36ZM1236.21 1755V1756H1237.21V1755H1236.21ZM1229.18 1755L1228.35 1755.57L1228.65 1756H1229.18V1755ZM1208.61 1725.28L1209.44 1724.71L1209.14 1724.28H1208.61V1725.28ZM1208.25 1725.28V1724.28H1207.25V1725.28H1208.25ZM1208.25 1755V1756H1209.25V1755H1208.25ZM1200.35 1755H1199.35V1756H1200.35V1755ZM1200.35 1711.36V1710.36H1199.35V1711.36H1200.35ZM1207.42 1711.36L1208.24 1710.8L1207.95 1710.36H1207.42V1711.36ZM1227.96 1741.11L1227.14 1741.68L1227.44 1742.11H1227.96V1741.11ZM1228.34 1741.11V1742.11H1229.34V1741.11H1228.34ZM1228.34 1711.36V1710.36H1227.34V1711.36H1228.34ZM1235.21 1711.36V1755H1237.21V1711.36H1235.21ZM1236.21 1754H1229.18V1756H1236.21V1754ZM1230 1754.43L1209.44 1724.71L1207.79 1725.85L1228.35 1755.57L1230 1754.43ZM1208.61 1724.28H1208.25V1726.28H1208.61V1724.28ZM1207.25 1725.28V1755H1209.25V1725.28H1207.25ZM1208.25 1754H1200.35V1756H1208.25V1754ZM1201.35 1755V1711.36H1199.35V1755H1201.35ZM1200.35 1712.36H1207.42V1710.36H1200.35V1712.36ZM1206.6 1711.93L1227.14 1741.68L1228.78 1740.54L1208.24 1710.8L1206.6 1711.93ZM1227.96 1742.11H1228.34V1740.11H1227.96V1742.11ZM1229.34 1741.11V1711.36H1227.34V1741.11H1229.34ZM1228.34 1712.36H1236.21V1710.36H1228.34V1712.36ZM1296.05 1745.26L1295.17 1744.8L1295.17 1744.8L1296.05 1745.26ZM1288.89 1752.93L1288.39 1752.07L1288.38 1752.07L1288.89 1752.93ZM1268.37 1752.93L1267.86 1753.79L1267.87 1753.8L1268.37 1752.93ZM1261.22 1745.24L1260.33 1745.7L1260.33 1745.71L1261.22 1745.24ZM1261.22 1721.12L1260.33 1720.66L1260.33 1720.66L1261.22 1721.12ZM1268.37 1713.43L1267.87 1712.57L1267.87 1712.57L1268.37 1713.43ZM1288.89 1713.43L1288.38 1714.29L1288.39 1714.29L1288.89 1713.43ZM1296.05 1721.12L1295.17 1721.58L1295.17 1721.59L1296.05 1721.12ZM1289.19 1724.81L1288.28 1725.22L1288.28 1725.22L1289.19 1724.81ZM1284.93 1719.63L1284.39 1720.47L1284.39 1720.47L1284.93 1719.63ZM1272.36 1719.63L1272.9 1720.47L1272.9 1720.47L1272.36 1719.63ZM1268.08 1724.81L1267.17 1724.4L1267.16 1724.4L1268.08 1724.81ZM1268.08 1741.58L1267.16 1741.98L1267.17 1741.99L1268.08 1741.58ZM1272.36 1746.75L1271.81 1747.59L1271.82 1747.6L1272.36 1746.75ZM1284.93 1746.75L1285.47 1747.6L1285.47 1747.59L1284.93 1746.75ZM1289.19 1741.58L1288.28 1741.16L1288.28 1741.17L1289.19 1741.58ZM1297.69 1733.18C1297.69 1737.76 1296.84 1741.62 1295.17 1744.8L1296.94 1745.73C1298.79 1742.2 1299.69 1738.01 1299.69 1733.18H1297.69ZM1295.17 1744.8C1293.5 1747.98 1291.24 1750.4 1288.39 1752.07L1289.4 1753.8C1292.6 1751.92 1295.11 1749.22 1296.94 1745.73L1295.17 1744.8ZM1288.38 1752.07C1285.54 1753.75 1282.3 1754.6 1278.64 1754.6V1756.6C1282.63 1756.6 1286.22 1755.67 1289.4 1753.79L1288.38 1752.07ZM1278.64 1754.6C1274.98 1754.6 1271.74 1753.75 1268.88 1752.07L1267.87 1753.8C1271.06 1755.67 1274.66 1756.6 1278.64 1756.6V1754.6ZM1268.89 1752.07C1266.04 1750.39 1263.78 1747.96 1262.1 1744.77L1260.33 1745.71C1262.17 1749.2 1264.68 1751.9 1267.86 1753.79L1268.89 1752.07ZM1262.1 1744.78C1260.44 1741.6 1259.59 1737.75 1259.59 1733.18H1257.59C1257.59 1737.99 1258.49 1742.18 1260.33 1745.7L1262.1 1744.78ZM1259.59 1733.18C1259.59 1728.6 1260.45 1724.75 1262.1 1721.59L1260.33 1720.66C1258.49 1724.17 1257.59 1728.36 1257.59 1733.18H1259.59ZM1262.1 1721.59C1263.78 1718.39 1266.04 1715.97 1268.88 1714.29L1267.87 1712.57C1264.68 1714.45 1262.17 1717.15 1260.33 1720.66L1262.1 1721.59ZM1268.88 1714.29C1271.74 1712.62 1274.98 1711.77 1278.64 1711.77V1709.77C1274.66 1709.77 1271.06 1710.69 1267.87 1712.57L1268.88 1714.29ZM1278.64 1711.77C1282.3 1711.77 1285.54 1712.62 1288.38 1714.29L1289.4 1712.57C1286.22 1710.69 1282.63 1709.77 1278.64 1709.77V1711.77ZM1288.39 1714.29C1291.24 1715.97 1293.5 1718.39 1295.17 1721.58L1296.94 1720.66C1295.11 1717.15 1292.6 1714.45 1289.4 1712.57L1288.39 1714.29ZM1295.17 1721.59C1296.84 1724.75 1297.69 1728.6 1297.69 1733.18H1299.69C1299.69 1728.36 1298.79 1724.17 1296.94 1720.66L1295.17 1721.59ZM1291.75 1733.18C1291.75 1729.77 1291.21 1726.83 1290.1 1724.39L1288.28 1725.22C1289.24 1727.33 1289.75 1729.97 1289.75 1733.18H1291.75ZM1290.1 1724.4C1289.01 1721.96 1287.48 1720.07 1285.47 1718.79L1284.39 1720.47C1286.02 1721.52 1287.32 1723.08 1288.28 1725.22L1290.1 1724.4ZM1285.47 1718.79C1283.48 1717.5 1281.19 1716.86 1278.64 1716.86V1718.86C1280.84 1718.86 1282.74 1719.41 1284.39 1720.47L1285.47 1718.79ZM1278.64 1716.86C1276.1 1716.86 1273.81 1717.5 1271.81 1718.79L1272.9 1720.47C1274.54 1719.41 1276.45 1718.86 1278.64 1718.86V1716.86ZM1271.82 1718.79C1269.81 1720.07 1268.27 1721.96 1267.17 1724.4L1268.99 1725.22C1269.96 1723.08 1271.27 1721.52 1272.9 1720.47L1271.82 1718.79ZM1267.16 1724.4C1266.07 1726.83 1265.54 1729.77 1265.54 1733.18H1267.54C1267.54 1729.97 1268.04 1727.33 1268.99 1725.22L1267.16 1724.4ZM1265.54 1733.18C1265.54 1736.59 1266.07 1739.54 1267.16 1741.98L1268.99 1741.17C1268.04 1739.04 1267.54 1736.39 1267.54 1733.18H1265.54ZM1267.17 1741.99C1268.27 1744.41 1269.81 1746.3 1271.81 1747.59L1272.9 1745.92C1271.27 1744.85 1269.96 1743.29 1268.99 1741.16L1267.17 1741.99ZM1271.82 1747.6C1273.81 1748.87 1276.1 1749.5 1278.64 1749.5V1747.5C1276.44 1747.5 1274.54 1746.96 1272.9 1745.91L1271.82 1747.6ZM1278.64 1749.5C1281.19 1749.5 1283.47 1748.87 1285.47 1747.6L1284.39 1745.91C1282.75 1746.96 1280.84 1747.5 1278.64 1747.5V1749.5ZM1285.47 1747.59C1287.48 1746.29 1289.01 1744.41 1290.1 1741.99L1288.28 1741.17C1287.32 1743.29 1286.02 1744.86 1284.39 1745.92L1285.47 1747.59ZM1290.1 1741.99C1291.21 1739.54 1291.75 1736.59 1291.75 1733.18H1289.75C1289.75 1736.39 1289.24 1739.04 1288.28 1741.16L1290.1 1741.99ZM1330.23 1755L1329.27 1755.27L1329.48 1756H1330.23V1755ZM1317.92 1711.36V1710.36H1316.6L1316.96 1711.64L1317.92 1711.36ZM1326.42 1711.36L1327.39 1711.13L1327.2 1710.36H1326.42V1711.36ZM1334.28 1743.43L1333.31 1743.67L1333.5 1744.43H1334.28V1743.43ZM1334.69 1743.43V1744.43H1335.46L1335.65 1743.68L1334.69 1743.43ZM1343.08 1711.36V1710.36H1342.31L1342.11 1711.11L1343.08 1711.36ZM1350.82 1711.36L1351.78 1711.11L1351.59 1710.36H1350.82V1711.36ZM1359.23 1743.45L1358.26 1743.71L1358.46 1744.45H1359.23V1743.45ZM1359.62 1743.45V1744.45H1360.4L1360.59 1743.69L1359.62 1743.45ZM1367.48 1711.36V1710.36H1366.69L1366.51 1711.13L1367.48 1711.36ZM1375.98 1711.36L1376.94 1711.64L1377.3 1710.36H1375.98V1711.36ZM1363.66 1755V1756H1364.42L1364.63 1755.27L1363.66 1755ZM1355.87 1755L1354.9 1755.27L1355.11 1756H1355.87V1755ZM1347.13 1724.38L1348.09 1724.11L1347.88 1723.38H1347.13V1724.38ZM1346.79 1724.38V1723.38H1346.03L1345.83 1724.11L1346.79 1724.38ZM1338.03 1755V1756H1338.79L1338.99 1755.27L1338.03 1755ZM1331.2 1754.73L1318.88 1711.09L1316.96 1711.64L1329.27 1755.27L1331.2 1754.73ZM1317.92 1712.36H1326.42V1710.36H1317.92V1712.36ZM1325.45 1711.6L1333.31 1743.67L1335.25 1743.19L1327.39 1711.13L1325.45 1711.6ZM1334.28 1744.43H1334.69V1742.43H1334.28V1744.43ZM1335.65 1743.68L1344.05 1711.62L1342.11 1711.11L1333.72 1743.18L1335.65 1743.68ZM1343.08 1712.36H1350.82V1710.36H1343.08V1712.36ZM1349.85 1711.62L1358.26 1743.71L1360.2 1743.2L1351.78 1711.11L1349.85 1711.62ZM1359.23 1744.45H1359.62V1742.45H1359.23V1744.45ZM1360.59 1743.69L1368.45 1711.6L1366.51 1711.13L1358.64 1743.21L1360.59 1743.69ZM1367.48 1712.36H1375.98V1710.36H1367.48V1712.36ZM1375.02 1711.09L1362.7 1754.73L1364.63 1755.27L1376.94 1711.64L1375.02 1711.09ZM1363.66 1754H1355.87V1756H1363.66V1754ZM1356.83 1754.73L1348.09 1724.11L1346.17 1724.66L1354.9 1755.27L1356.83 1754.73ZM1347.13 1723.38H1346.79V1725.38H1347.13V1723.38ZM1345.83 1724.11L1337.07 1754.73L1338.99 1755.27L1347.75 1724.66L1345.83 1724.11ZM1338.03 1754H1330.23V1756H1338.03V1754ZM1420.06 1723.36L1419.06 1723.47L1419.16 1724.36H1420.06V1723.36ZM1417.54 1719.01L1416.97 1719.83L1416.97 1719.83L1417.54 1719.01ZM1407.59 1718.2L1407.98 1719.12L1407.98 1719.12L1407.59 1718.2ZM1404.89 1720.23L1404.08 1719.64L1404.08 1719.64L1404.89 1720.23ZM1403.93 1723.15L1402.93 1723.13V1723.15H1403.93ZM1404.55 1725.51L1403.7 1726.04L1403.7 1726.04L1403.7 1726.05L1404.55 1725.51ZM1406.27 1727.22L1405.73 1728.06L1405.74 1728.06L1406.27 1727.22ZM1408.68 1728.37L1408.35 1729.31L1408.35 1729.31L1408.68 1728.37ZM1411.34 1729.15L1411.59 1728.18L1411.57 1728.18L1411.34 1729.15ZM1415.43 1730.18L1415.19 1731.15L1415.2 1731.15L1415.21 1731.15L1415.43 1730.18ZM1420.19 1731.73L1419.79 1732.65L1419.79 1732.65L1420.19 1731.73ZM1424.3 1734.2L1423.66 1734.98L1423.67 1734.98L1424.3 1734.2ZM1426.3 1749.5L1427.13 1750.06L1427.13 1750.06L1426.3 1749.5ZM1420.63 1754.04L1421.04 1754.96L1421.04 1754.96L1420.63 1754.04ZM1402.86 1754.08L1402.47 1755L1402.48 1755.01L1402.86 1754.08ZM1397.02 1749.48L1396.2 1750.05L1396.2 1750.05L1397.02 1749.48ZM1394.77 1742.11V1741.11H1393.73L1393.77 1742.15L1394.77 1742.11ZM1402.54 1742.11L1403.54 1742.03L1403.47 1741.11H1402.54V1742.11ZM1403.95 1745.9L1404.72 1745.27L1404.72 1745.27L1403.95 1745.9ZM1407.17 1748.16L1406.81 1749.1L1406.82 1749.1L1407.17 1748.16ZM1416.16 1748.14L1416.53 1749.07L1416.53 1749.07L1416.16 1748.14ZM1419.23 1745.97L1420.01 1746.59L1420.01 1746.58L1419.23 1745.97ZM1420.36 1742.68L1421.36 1742.7L1421.36 1742.68L1421.36 1742.67L1420.36 1742.68ZM1419.35 1739.87L1418.6 1740.53L1418.61 1740.53L1419.35 1739.87ZM1416.61 1738L1416.2 1738.91L1416.21 1738.92L1416.22 1738.92L1416.61 1738ZM1412.51 1736.63L1412.27 1737.6L1412.27 1737.6L1412.51 1736.63ZM1407.55 1735.36L1407.8 1734.39L1407.8 1734.39L1407.55 1735.36ZM1399.03 1731.16L1398.35 1731.9L1398.36 1731.9L1399.03 1731.16ZM1398 1716.88L1397.2 1716.29L1397.19 1716.3L1398 1716.88ZM1403.74 1712.39L1404.14 1713.3L1404.14 1713.3L1403.74 1712.39ZM1420.08 1712.39L1419.66 1713.29L1419.67 1713.3L1420.08 1712.39ZM1425.6 1716.84L1424.78 1717.41L1424.78 1717.42L1425.6 1716.84ZM1427.66 1723.36V1724.36H1428.68L1428.66 1723.34L1427.66 1723.36ZM1421.05 1723.25C1420.82 1721.12 1419.84 1719.4 1418.12 1718.19L1416.97 1719.83C1418.2 1720.7 1418.89 1721.88 1419.06 1723.47L1421.05 1723.25ZM1418.12 1718.2C1416.44 1717.01 1414.32 1716.46 1411.83 1716.46V1718.46C1414.03 1718.46 1415.72 1718.94 1416.97 1719.83L1418.12 1718.2ZM1411.83 1716.46C1410.09 1716.46 1408.54 1716.72 1407.2 1717.28L1407.98 1719.12C1409.01 1718.69 1410.28 1718.46 1411.83 1718.46V1716.46ZM1407.2 1717.28C1405.89 1717.83 1404.83 1718.61 1404.08 1719.64L1405.69 1720.82C1406.19 1720.14 1406.93 1719.57 1407.98 1719.12L1407.2 1717.28ZM1404.08 1719.64C1403.33 1720.66 1402.95 1721.84 1402.93 1723.13L1404.93 1723.16C1404.94 1722.27 1405.2 1721.5 1405.69 1720.82L1404.08 1719.64ZM1402.93 1723.15C1402.93 1724.21 1403.17 1725.19 1403.7 1726.04L1405.4 1724.99C1405.1 1724.5 1404.93 1723.9 1404.93 1723.15H1402.93ZM1403.7 1726.05C1404.21 1726.85 1404.89 1727.52 1405.73 1728.06L1406.82 1726.38C1406.2 1725.98 1405.73 1725.51 1405.39 1724.97L1403.7 1726.05ZM1405.74 1728.06C1406.53 1728.56 1407.4 1728.97 1408.35 1729.31L1409.01 1727.42C1408.2 1727.13 1407.46 1726.78 1406.8 1726.37L1405.74 1728.06ZM1408.35 1729.31C1409.26 1729.63 1410.18 1729.91 1411.11 1730.13L1411.57 1728.18C1410.72 1727.98 1409.86 1727.72 1409.01 1727.42L1408.35 1729.31ZM1411.1 1730.12L1415.19 1731.15L1415.68 1729.21L1411.59 1728.18L1411.1 1730.12ZM1415.21 1731.15C1416.8 1731.52 1418.33 1732.02 1419.79 1732.65L1420.58 1730.81C1419 1730.14 1417.36 1729.6 1415.66 1729.2L1415.21 1731.15ZM1419.79 1732.65C1421.25 1733.27 1422.53 1734.05 1423.66 1734.98L1424.93 1733.43C1423.65 1732.37 1422.19 1731.5 1420.58 1730.81L1419.79 1732.65ZM1423.67 1734.98C1424.78 1735.89 1425.66 1736.98 1426.3 1738.26L1428.09 1737.35C1427.31 1735.82 1426.26 1734.51 1424.93 1733.43L1423.67 1734.98ZM1426.3 1738.26C1426.93 1739.5 1427.26 1740.99 1427.26 1742.75H1429.26C1429.26 1740.73 1428.88 1738.93 1428.09 1737.35L1426.3 1738.26ZM1427.26 1742.75C1427.26 1745.13 1426.66 1747.18 1425.47 1748.95L1427.13 1750.06C1428.56 1747.93 1429.26 1745.49 1429.26 1742.75H1427.26ZM1425.47 1748.94C1424.29 1750.7 1422.56 1752.1 1420.23 1753.13L1421.04 1754.96C1423.65 1753.8 1425.7 1752.17 1427.13 1750.06L1425.47 1748.94ZM1420.23 1753.13C1417.93 1754.14 1415.1 1754.66 1411.71 1754.66V1756.66C1415.3 1756.66 1418.42 1756.11 1421.04 1754.96L1420.23 1753.13ZM1411.71 1754.66C1408.41 1754.66 1405.6 1754.15 1403.25 1753.16L1402.48 1755.01C1405.12 1756.12 1408.21 1756.66 1411.71 1756.66V1754.66ZM1403.25 1753.16C1400.92 1752.18 1399.13 1750.76 1397.85 1748.91L1396.2 1750.05C1397.73 1752.24 1399.83 1753.89 1402.47 1755L1403.25 1753.16ZM1397.85 1748.91C1396.58 1747.08 1395.87 1744.81 1395.77 1742.07L1393.77 1742.15C1393.89 1745.2 1394.68 1747.85 1396.2 1750.05L1397.85 1748.91ZM1394.77 1743.11H1402.54V1741.11H1394.77V1743.11ZM1401.55 1742.18C1401.67 1743.87 1402.2 1745.34 1403.18 1746.53L1404.72 1745.27C1404.05 1744.45 1403.64 1743.39 1403.54 1742.03L1401.55 1742.18ZM1403.18 1746.53C1404.12 1747.69 1405.34 1748.54 1406.81 1749.1L1407.52 1747.22C1406.35 1746.78 1405.43 1746.13 1404.72 1745.27L1403.18 1746.53ZM1406.82 1749.1C1408.28 1749.64 1409.89 1749.91 1411.64 1749.91V1747.91C1410.09 1747.91 1408.72 1747.67 1407.52 1747.22L1406.82 1749.1ZM1411.64 1749.91C1413.46 1749.91 1415.09 1749.64 1416.53 1749.07L1415.79 1747.21C1414.64 1747.66 1413.26 1747.91 1411.64 1747.91V1749.91ZM1416.53 1749.07C1417.97 1748.49 1419.14 1747.67 1420.01 1746.59L1418.45 1745.34C1417.83 1746.11 1416.96 1746.74 1415.79 1747.21L1416.53 1749.07ZM1420.01 1746.58C1420.89 1745.47 1421.34 1744.16 1421.36 1742.7L1419.36 1742.67C1419.34 1743.71 1419.04 1744.59 1418.44 1745.35L1420.01 1746.58ZM1421.36 1742.67C1421.34 1741.33 1420.94 1740.15 1420.1 1739.21L1418.61 1740.53C1419.08 1741.07 1419.34 1741.76 1419.36 1742.7L1421.36 1742.67ZM1420.11 1739.22C1419.33 1738.32 1418.28 1737.62 1416.99 1737.08L1416.22 1738.92C1417.29 1739.37 1418.07 1739.92 1418.6 1740.53L1420.11 1739.22ZM1417.01 1737.08C1415.78 1736.54 1414.36 1736.07 1412.76 1735.66L1412.27 1737.6C1413.79 1737.99 1415.1 1738.43 1416.2 1738.91L1417.01 1737.08ZM1412.76 1735.67L1407.8 1734.39L1407.3 1736.32L1412.27 1737.6L1412.76 1735.67ZM1407.8 1734.39C1404.31 1733.49 1401.63 1732.15 1399.7 1730.41L1398.36 1731.9C1400.6 1733.91 1403.6 1735.37 1407.3 1736.32L1407.8 1734.39ZM1399.7 1730.42C1397.86 1728.74 1396.92 1726.52 1396.92 1723.64H1394.92C1394.92 1727.01 1396.05 1729.8 1398.35 1731.9L1399.7 1730.42ZM1396.92 1723.64C1396.92 1721.26 1397.56 1719.21 1398.82 1717.47L1397.19 1716.3C1395.67 1718.41 1394.92 1720.87 1394.92 1723.64H1396.92ZM1398.81 1717.47C1400.11 1715.7 1401.87 1714.3 1404.14 1713.3L1403.33 1711.47C1400.77 1712.6 1398.72 1714.2 1397.2 1716.29L1398.81 1717.47ZM1404.14 1713.3C1406.41 1712.29 1409 1711.77 1411.94 1711.77V1709.77C1408.77 1709.77 1405.89 1710.33 1403.33 1711.47L1404.14 1713.3ZM1411.94 1711.77C1414.92 1711.77 1417.48 1712.29 1419.66 1713.29L1420.5 1711.48C1418.01 1710.33 1415.15 1709.77 1411.94 1709.77V1711.77ZM1419.67 1713.3C1421.86 1714.3 1423.56 1715.67 1424.78 1717.41L1426.42 1716.27C1424.97 1714.2 1422.98 1712.61 1420.49 1711.48L1419.67 1713.3ZM1424.78 1717.42C1425.99 1719.13 1426.62 1721.11 1426.66 1723.38L1428.66 1723.34C1428.62 1720.7 1427.87 1718.33 1426.41 1716.26L1424.78 1717.42ZM1427.66 1722.36H1420.06V1724.36H1427.66V1722.36ZM1479.96 1755H1478.96V1756H1479.96V1755ZM1479.96 1711.36V1710.36H1478.96V1711.36H1479.96ZM1504.52 1712.86L1504.09 1713.76L1504.1 1713.76L1504.52 1712.86ZM1509.23 1716.88L1508.38 1717.4L1508.38 1717.41L1509.23 1716.88ZM1509.79 1727.24L1510.66 1727.72L1510.67 1727.71L1509.79 1727.24ZM1507.04 1730.28L1506.48 1729.46L1506.48 1729.46L1507.04 1730.28ZM1503.18 1731.97L1502.95 1730.99L1502.18 1731.18V1731.97H1503.18ZM1503.18 1732.39H1502.18V1733.34L1503.13 1733.39L1503.18 1732.39ZM1507.63 1733.82L1507.11 1734.67L1507.12 1734.68L1507.63 1733.82ZM1511.15 1737.44L1510.29 1737.95L1510.29 1737.95L1511.15 1737.44ZM1510.87 1749.2L1511.73 1749.73L1511.73 1749.72L1510.87 1749.2ZM1487.86 1748.39H1486.86V1749.39H1487.86V1748.39ZM1502.56 1746.75L1503.22 1747.51L1503.22 1747.51L1502.56 1746.75ZM1503.52 1739L1502.67 1739.52L1502.67 1739.52L1503.52 1739ZM1500.79 1736.53L1500.33 1737.41L1500.34 1737.42L1500.79 1736.53ZM1487.86 1735.61V1734.61H1486.86V1735.61H1487.86ZM1487.86 1729.92H1486.86V1730.92H1487.86V1729.92ZM1499.37 1729.18L1499.78 1730.09L1499.79 1730.08L1499.37 1729.18ZM1501.94 1727.02L1501.12 1726.46L1501.12 1726.46L1501.94 1727.02ZM1501.11 1719.52L1500.43 1720.26L1500.44 1720.26L1501.11 1719.52ZM1487.86 1717.88V1716.88H1486.86V1717.88H1487.86ZM1480.96 1755V1711.36H1478.96V1755H1480.96ZM1479.96 1712.36H1496.66V1710.36H1479.96V1712.36ZM1496.66 1712.36C1499.72 1712.36 1502.18 1712.85 1504.09 1713.76L1504.95 1711.95C1502.69 1710.88 1499.91 1710.36 1496.66 1710.36V1712.36ZM1504.1 1713.76C1506.05 1714.67 1507.46 1715.89 1508.38 1717.4L1510.09 1716.36C1508.93 1714.46 1507.2 1713 1504.95 1711.95L1504.1 1713.76ZM1508.38 1717.41C1509.33 1718.94 1509.81 1720.69 1509.81 1722.68H1511.81C1511.81 1720.35 1511.24 1718.23 1510.08 1716.36L1508.38 1717.41ZM1509.81 1722.68C1509.81 1724.33 1509.49 1725.67 1508.91 1726.76L1510.67 1727.71C1511.44 1726.27 1511.81 1724.58 1511.81 1722.68H1509.81ZM1508.91 1726.76C1508.3 1727.87 1507.49 1728.77 1506.48 1729.46L1507.6 1731.11C1508.88 1730.24 1509.91 1729.1 1510.66 1727.72L1508.91 1726.76ZM1506.48 1729.46C1505.43 1730.17 1504.26 1730.68 1502.95 1730.99L1503.41 1732.94C1504.95 1732.57 1506.34 1731.96 1507.6 1731.11L1506.48 1729.46ZM1502.18 1731.97V1732.39H1504.18V1731.97H1502.18ZM1503.13 1733.39C1504.5 1733.47 1505.82 1733.89 1507.11 1734.67L1508.15 1732.97C1506.6 1732.02 1504.96 1731.49 1503.24 1731.39L1503.13 1733.39ZM1507.12 1734.68C1508.4 1735.44 1509.45 1736.52 1510.29 1737.95L1512.01 1736.94C1511.03 1735.24 1509.74 1733.91 1508.14 1732.96L1507.12 1734.68ZM1510.29 1737.95C1511.09 1739.32 1511.51 1741.03 1511.51 1743.11H1513.51C1513.51 1740.76 1513.03 1738.69 1512.01 1736.94L1510.29 1737.95ZM1511.51 1743.11C1511.51 1745.2 1511.01 1747.05 1510.02 1748.69L1511.73 1749.72C1512.92 1747.75 1513.51 1745.54 1513.51 1743.11H1511.51ZM1510.02 1748.68C1509.04 1750.28 1507.56 1751.57 1505.5 1752.54L1506.36 1754.35C1508.7 1753.24 1510.51 1751.71 1511.73 1749.73L1510.02 1748.68ZM1505.5 1752.54C1503.47 1753.5 1500.86 1754 1497.62 1754V1756C1501.05 1756 1503.98 1755.47 1506.36 1754.35L1505.5 1752.54ZM1497.62 1754H1479.96V1756H1497.62V1754ZM1487.86 1749.39H1496.36V1747.39H1487.86V1749.39ZM1496.36 1749.39C1499.31 1749.39 1501.68 1748.84 1503.22 1747.51L1501.91 1746C1500.92 1746.86 1499.15 1747.39 1496.36 1747.39V1749.39ZM1503.22 1747.51C1504.72 1746.21 1505.48 1744.51 1505.48 1742.49H1503.48C1503.48 1743.94 1502.96 1745.09 1501.91 1746L1503.22 1747.51ZM1505.48 1742.49C1505.48 1741.03 1505.12 1739.68 1504.37 1738.47L1502.67 1739.52C1503.21 1740.39 1503.48 1741.37 1503.48 1742.49H1505.48ZM1504.38 1738.48C1503.63 1737.26 1502.58 1736.31 1501.25 1735.63L1500.34 1737.42C1501.37 1737.94 1502.13 1738.64 1502.67 1739.52L1504.38 1738.48ZM1501.25 1735.64C1499.9 1734.94 1498.33 1734.61 1496.58 1734.61V1736.61C1498.09 1736.61 1499.33 1736.89 1500.33 1737.41L1501.25 1735.64ZM1496.58 1734.61H1487.86V1736.61H1496.58V1734.61ZM1486.86 1735.61V1748.39H1488.86V1735.61H1486.86ZM1487.86 1730.92H1495.68V1728.92H1487.86V1730.92ZM1495.68 1730.92C1497.17 1730.92 1498.54 1730.65 1499.78 1730.09L1498.95 1728.27C1498.01 1728.7 1496.92 1728.92 1495.68 1728.92V1730.92ZM1499.79 1730.08C1501.03 1729.5 1502.04 1728.67 1502.77 1727.58L1501.12 1726.46C1500.6 1727.23 1499.89 1727.83 1498.94 1728.27L1499.79 1730.08ZM1502.77 1727.59C1503.54 1726.46 1503.9 1725.15 1503.9 1723.7H1501.9C1501.9 1724.8 1501.63 1725.71 1501.12 1726.46L1502.77 1727.59ZM1503.9 1723.7C1503.9 1721.74 1503.2 1720.08 1501.79 1718.79L1500.44 1720.26C1501.41 1721.16 1501.9 1722.28 1501.9 1723.7H1503.9ZM1501.79 1718.79C1500.36 1717.46 1498.32 1716.88 1495.85 1716.88V1718.88C1498.04 1718.88 1499.51 1719.4 1500.43 1720.26L1501.79 1718.79ZM1495.85 1716.88H1487.86V1718.88H1495.85V1716.88ZM1486.86 1717.88V1729.92H1488.86V1717.88H1486.86ZM1534.27 1755H1533.27V1756H1534.27V1755ZM1534.27 1711.36V1710.36H1533.27V1711.36H1534.27ZM1562.65 1711.36H1563.65V1710.36H1562.65V1711.36ZM1562.65 1717.99V1718.99H1563.65V1717.99H1562.65ZM1542.18 1717.99V1716.99H1541.18V1717.99H1542.18ZM1542.18 1729.84H1541.18V1730.84H1542.18V1729.84ZM1561.18 1729.84H1562.18V1728.84H1561.18V1729.84ZM1561.18 1736.46V1737.46H1562.18V1736.46H1561.18ZM1542.18 1736.46V1735.46H1541.18V1736.46H1542.18ZM1542.18 1748.37H1541.18V1749.37H1542.18V1748.37ZM1562.82 1748.37H1563.82V1747.37H1562.82V1748.37ZM1562.82 1755V1756H1563.82V1755H1562.82ZM1535.27 1755V1711.36H1533.27V1755H1535.27ZM1534.27 1712.36H1562.65V1710.36H1534.27V1712.36ZM1561.65 1711.36V1717.99H1563.65V1711.36H1561.65ZM1562.65 1716.99H1542.18V1718.99H1562.65V1716.99ZM1541.18 1717.99V1729.84H1543.18V1717.99H1541.18ZM1542.18 1730.84H1561.18V1728.84H1542.18V1730.84ZM1560.18 1729.84V1736.46H1562.18V1729.84H1560.18ZM1561.18 1735.46H1542.18V1737.46H1561.18V1735.46ZM1541.18 1736.46V1748.37H1543.18V1736.46H1541.18ZM1542.18 1749.37H1562.82V1747.37H1542.18V1749.37ZM1561.82 1748.37V1755H1563.82V1748.37H1561.82ZM1562.82 1754H1534.27V1756H1562.82V1754ZM1609.32 1723.36L1608.32 1723.47L1608.42 1724.36H1609.32V1723.36ZM1606.8 1719.01L1606.22 1719.83L1606.23 1719.83L1606.8 1719.01ZM1596.85 1718.2L1597.24 1719.12L1597.24 1719.12L1596.85 1718.2ZM1594.14 1720.23L1593.34 1719.64L1593.34 1719.64L1594.14 1720.23ZM1593.19 1723.15L1592.19 1723.13V1723.15H1593.19ZM1593.8 1725.51L1592.95 1726.04L1592.96 1726.04L1592.96 1726.05L1593.8 1725.51ZM1595.53 1727.22L1594.99 1728.06L1595 1728.06L1595.53 1727.22ZM1597.94 1728.37L1597.6 1729.31L1597.6 1729.31L1597.94 1728.37ZM1600.6 1729.15L1600.84 1728.18L1600.83 1728.18L1600.6 1729.15ZM1604.69 1730.18L1604.45 1731.15L1604.46 1731.15L1604.47 1731.15L1604.69 1730.18ZM1609.44 1731.73L1609.05 1732.65L1609.05 1732.65L1609.44 1731.73ZM1613.56 1734.2L1612.92 1734.98L1612.92 1734.98L1613.56 1734.2ZM1615.56 1749.5L1616.39 1750.06L1616.39 1750.06L1615.56 1749.5ZM1609.89 1754.04L1610.29 1754.96L1610.3 1754.96L1609.89 1754.04ZM1592.12 1754.08L1591.73 1755L1591.73 1755.01L1592.12 1754.08ZM1586.28 1749.48L1585.46 1750.05L1585.46 1750.05L1586.28 1749.48ZM1584.02 1742.11V1741.11H1582.98L1583.02 1742.15L1584.02 1742.11ZM1591.8 1742.11L1592.8 1742.03L1592.73 1741.11H1591.8V1742.11ZM1593.21 1745.9L1593.98 1745.27L1593.98 1745.27L1593.21 1745.9ZM1596.42 1748.16L1596.07 1749.1L1596.08 1749.1L1596.42 1748.16ZM1605.42 1748.14L1605.78 1749.07L1605.79 1749.07L1605.42 1748.14ZM1608.48 1745.97L1609.27 1746.59L1609.27 1746.58L1608.48 1745.97ZM1609.61 1742.68L1610.61 1742.7L1610.61 1742.68L1610.61 1742.67L1609.61 1742.68ZM1608.61 1739.87L1607.86 1740.53L1607.86 1740.53L1608.61 1739.87ZM1605.86 1738L1605.46 1738.91L1605.47 1738.92L1605.48 1738.92L1605.86 1738ZM1601.77 1736.63L1601.52 1737.6L1601.53 1737.6L1601.77 1736.63ZM1596.81 1735.36L1597.06 1734.39L1597.06 1734.39L1596.81 1735.36ZM1588.29 1731.16L1587.61 1731.9L1587.62 1731.9L1588.29 1731.16ZM1587.26 1716.88L1586.45 1716.29L1586.45 1716.3L1587.26 1716.88ZM1592.99 1712.39L1593.4 1713.3L1593.4 1713.3L1592.99 1712.39ZM1609.34 1712.39L1608.92 1713.29L1608.92 1713.3L1609.34 1712.39ZM1614.86 1716.84L1614.04 1717.41L1614.04 1717.42L1614.86 1716.84ZM1616.92 1723.36V1724.36H1617.94L1617.92 1723.34L1616.92 1723.36ZM1610.31 1723.25C1610.08 1721.12 1609.1 1719.4 1607.38 1718.19L1606.23 1719.83C1607.46 1720.7 1608.15 1721.88 1608.32 1723.47L1610.31 1723.25ZM1607.38 1718.2C1605.7 1717.01 1603.58 1716.46 1601.09 1716.46V1718.46C1603.29 1718.46 1604.97 1718.94 1606.22 1719.83L1607.38 1718.2ZM1601.09 1716.46C1599.35 1716.46 1597.79 1716.72 1596.46 1717.28L1597.24 1719.12C1598.27 1718.69 1599.54 1718.46 1601.09 1718.46V1716.46ZM1596.46 1717.28C1595.15 1717.83 1594.09 1718.61 1593.34 1719.64L1594.95 1720.82C1595.45 1720.14 1596.19 1719.57 1597.24 1719.12L1596.46 1717.28ZM1593.34 1719.64C1592.59 1720.66 1592.2 1721.84 1592.19 1723.13L1594.19 1723.16C1594.2 1722.27 1594.45 1721.5 1594.95 1720.82L1593.34 1719.64ZM1592.19 1723.15C1592.19 1724.21 1592.43 1725.19 1592.95 1726.04L1594.66 1724.99C1594.36 1724.5 1594.19 1723.9 1594.19 1723.15H1592.19ZM1592.96 1726.05C1593.47 1726.85 1594.15 1727.52 1594.99 1728.06L1596.07 1726.38C1595.46 1725.98 1594.99 1725.51 1594.65 1724.97L1592.96 1726.05ZM1595 1728.06C1595.79 1728.56 1596.66 1728.97 1597.6 1729.31L1598.27 1727.42C1597.45 1727.13 1596.72 1726.78 1596.06 1726.37L1595 1728.06ZM1597.6 1729.31C1598.52 1729.63 1599.44 1729.91 1600.37 1730.13L1600.83 1728.18C1599.97 1727.98 1599.12 1727.72 1598.27 1727.42L1597.6 1729.31ZM1600.36 1730.12L1604.45 1731.15L1604.93 1729.21L1600.84 1728.18L1600.36 1730.12ZM1604.47 1731.15C1606.06 1731.52 1607.58 1732.02 1609.05 1732.65L1609.84 1730.81C1608.26 1730.14 1606.62 1729.6 1604.92 1729.2L1604.47 1731.15ZM1609.05 1732.65C1610.5 1733.27 1611.79 1734.05 1612.92 1734.98L1614.19 1733.43C1612.91 1732.37 1611.45 1731.5 1609.84 1730.81L1609.05 1732.65ZM1612.92 1734.98C1614.04 1735.89 1614.91 1736.98 1615.56 1738.26L1617.35 1737.35C1616.57 1735.82 1615.52 1734.51 1614.19 1733.43L1612.92 1734.98ZM1615.56 1738.26C1616.19 1739.5 1616.52 1740.99 1616.52 1742.75H1618.52C1618.52 1740.73 1618.14 1738.93 1617.35 1737.35L1615.56 1738.26ZM1616.52 1742.75C1616.52 1745.13 1615.91 1747.18 1614.73 1748.95L1616.39 1750.06C1617.82 1747.93 1618.52 1745.49 1618.52 1742.75H1616.52ZM1614.73 1748.94C1613.54 1750.7 1611.81 1752.1 1609.49 1753.13L1610.3 1754.96C1612.91 1753.8 1614.96 1752.17 1616.39 1750.06L1614.73 1748.94ZM1609.49 1753.13C1607.19 1754.14 1604.36 1754.66 1600.96 1754.66V1756.66C1604.56 1756.66 1607.68 1756.11 1610.29 1754.96L1609.49 1753.13ZM1600.96 1754.66C1597.67 1754.66 1594.86 1754.15 1592.51 1753.16L1591.73 1755.01C1594.38 1756.12 1597.47 1756.66 1600.96 1756.66V1754.66ZM1592.51 1753.16C1590.18 1752.18 1588.39 1750.76 1587.1 1748.91L1585.46 1750.05C1586.99 1752.24 1589.09 1753.89 1591.73 1755L1592.51 1753.16ZM1587.11 1748.91C1585.84 1747.08 1585.13 1744.81 1585.02 1742.07L1583.02 1742.15C1583.14 1745.2 1583.94 1747.85 1585.46 1750.05L1587.11 1748.91ZM1584.02 1743.11H1591.8V1741.11H1584.02V1743.11ZM1590.8 1742.18C1590.93 1743.87 1591.46 1745.34 1592.43 1746.53L1593.98 1745.27C1593.31 1744.45 1592.9 1743.39 1592.8 1742.03L1590.8 1742.18ZM1592.43 1746.53C1593.38 1747.69 1594.6 1748.54 1596.07 1749.1L1596.78 1747.22C1595.61 1746.78 1594.68 1746.13 1593.98 1745.27L1592.43 1746.53ZM1596.08 1749.1C1597.54 1749.64 1599.15 1749.91 1600.9 1749.91V1747.91C1599.35 1747.91 1597.98 1747.67 1596.77 1747.22L1596.08 1749.1ZM1600.9 1749.91C1602.72 1749.91 1604.35 1749.64 1605.78 1749.07L1605.05 1747.21C1603.9 1747.66 1602.52 1747.91 1600.9 1747.91V1749.91ZM1605.79 1749.07C1607.23 1748.49 1608.4 1747.67 1609.27 1746.59L1607.7 1745.34C1607.09 1746.11 1606.22 1746.74 1605.04 1747.21L1605.79 1749.07ZM1609.27 1746.58C1610.15 1745.47 1610.6 1744.16 1610.61 1742.7L1608.61 1742.67C1608.6 1743.71 1608.29 1744.59 1607.7 1745.35L1609.27 1746.58ZM1610.61 1742.67C1610.6 1741.33 1610.2 1740.15 1609.36 1739.21L1607.86 1740.53C1608.33 1741.07 1608.6 1741.76 1608.61 1742.7L1610.61 1742.67ZM1609.37 1739.22C1608.59 1738.32 1607.53 1737.62 1606.25 1737.08L1605.48 1738.92C1606.55 1739.37 1607.33 1739.92 1607.86 1740.53L1609.37 1739.22ZM1606.27 1737.08C1605.04 1736.54 1603.62 1736.07 1602.02 1735.66L1601.53 1737.6C1603.05 1737.99 1604.36 1738.43 1605.46 1738.91L1606.27 1737.08ZM1602.02 1735.67L1597.06 1734.39L1596.56 1736.32L1601.52 1737.6L1602.02 1735.67ZM1597.06 1734.39C1593.57 1733.49 1590.89 1732.15 1588.95 1730.41L1587.62 1731.9C1589.86 1733.91 1592.86 1735.37 1596.56 1736.32L1597.06 1734.39ZM1588.96 1730.42C1587.12 1728.74 1586.17 1726.52 1586.17 1723.64H1584.17C1584.17 1727.01 1585.31 1729.8 1587.61 1731.9L1588.96 1730.42ZM1586.17 1723.64C1586.17 1721.26 1586.81 1719.21 1588.07 1717.47L1586.45 1716.3C1584.93 1718.41 1584.17 1720.87 1584.17 1723.64H1586.17ZM1588.07 1717.47C1589.36 1715.7 1591.13 1714.3 1593.4 1713.3L1592.59 1711.47C1590.03 1712.6 1587.97 1714.2 1586.45 1716.29L1588.07 1717.47ZM1593.4 1713.3C1595.67 1712.29 1598.26 1711.77 1601.2 1711.77V1709.77C1598.02 1709.77 1595.15 1710.33 1592.59 1711.47L1593.4 1713.3ZM1601.2 1711.77C1604.18 1711.77 1606.74 1712.29 1608.92 1713.29L1609.76 1711.48C1607.27 1710.33 1604.41 1709.77 1601.2 1709.77V1711.77ZM1608.92 1713.3C1611.12 1714.3 1612.81 1715.67 1614.04 1717.41L1615.67 1716.27C1614.23 1714.2 1612.24 1712.61 1609.75 1711.48L1608.92 1713.3ZM1614.04 1717.42C1615.25 1719.13 1615.88 1721.11 1615.92 1723.38L1617.92 1723.34C1617.88 1720.7 1617.13 1718.33 1615.67 1716.26L1614.04 1717.42ZM1616.92 1722.36H1609.32V1724.36H1616.92V1722.36ZM1637.53 1717.99H1636.53V1718.99H1637.53V1717.99ZM1637.53 1711.36V1710.36H1636.53V1711.36H1637.53ZM1672.35 1711.36H1673.35V1710.36H1672.35V1711.36ZM1672.35 1717.99V1718.99H1673.35V1717.99H1672.35ZM1658.86 1717.99V1716.99H1657.86V1717.99H1658.86ZM1658.86 1755V1756H1659.86V1755H1658.86ZM1651.02 1755H1650.02V1756H1651.02V1755ZM1651.02 1717.99H1652.02V1716.99H1651.02V1717.99ZM1638.53 1717.99V1711.36H1636.53V1717.99H1638.53ZM1637.53 1712.36H1672.35V1710.36H1637.53V1712.36ZM1671.35 1711.36V1717.99H1673.35V1711.36H1671.35ZM1672.35 1716.99H1658.86V1718.99H1672.35V1716.99ZM1657.86 1717.99V1755H1659.86V1717.99H1657.86ZM1658.86 1754H1651.02V1756H1658.86V1754ZM1652.02 1755V1717.99H1650.02V1755H1652.02ZM1651.02 1716.99H1637.53V1718.99H1651.02V1716.99Z" fill="black"/>
</svg>
