<svg width="32" height="32" viewBox="0 0 200 200" fill="none" xmlns="http://www.w3.org/2000/svg">
<path d="M79.4166 91.6667V112.5C79.4166 115.815 80.7336 118.995 83.0778 121.339C85.422 123.683 88.6014 125 91.9166 125C95.2318 125 98.4113 123.683 100.755 121.339C103.1 118.995 104.417 115.815 104.417 112.5V91.6667M135.125 91.6667V112.5C135.125 115.815 136.442 118.995 138.786 121.339C141.13 123.683 144.31 125 147.625 125V125C150.94 125 154.12 123.683 156.464 121.339C158.808 118.995 160.125 115.815 160.125 112.5V91.6667M39.5833 74.7084V125.292M39.5833 104.417C39.5833 101.101 40.9003 97.9221 43.2445 95.5779C45.5887 93.2337 48.7681 91.9167 52.0833 91.9167V91.9167C55.3985 91.9167 58.5779 93.2337 60.9221 95.5779C63.2664 97.9221 64.5833 101.101 64.5833 104.417V125.25M119.708 74.7084V125.292" stroke="black" stroke-width="4.16667" stroke-linecap="round" stroke-linejoin="round"/>
<path d="M31.1666 22.9166C28.9565 22.9166 26.8369 23.7946 25.2741 25.3574C23.7113 26.9202 22.8333 29.0398 22.8333 31.25V31.25V168.75C22.8333 170.96 23.7113 173.08 25.2741 174.643C26.8369 176.205 28.9565 177.083 31.1666 177.083H168.833C171.043 177.083 173.163 176.205 174.726 174.643C176.289 173.08 177.167 170.96 177.167 168.75V31.25C177.167 29.0398 176.289 26.9202 174.726 25.3574C173.163 23.7946 171.043 22.9166 168.833 22.9166H31.1666Z" stroke="black" stroke-width="4.16667" stroke-linecap="round" stroke-linejoin="round"/>
</svg>
