<svg width="200" height="150" viewBox="0 0 200 150" fill="none" xmlns="http://www.w3.org/2000/svg">
<path fill-rule="evenodd" clip-rule="evenodd" d="M71.72 88.34L100.02 107.69L127.3 88.87L188.45 149.2C186.84 149.72 185.12 150 183.33 150H16.67C14.47 150 12.37 149.57 10.44 148.8L71.72 88.34ZM200 38.76V133.33C200 135.8 199.46 138.14 198.5 140.25L138.56 81.11L200 38.76ZM9.43602e-06 39.29L60.42 80.61L1.06001 139.19C0.356967 137.316 -0.00212233 135.331 9.43602e-06 133.33V39.29ZM183.33 0C192.53 0 200 7.46 200 16.67V22.53L99.98 91.48L9.43602e-06 23.1V16.67C9.43602e-06 7.47 7.46001 0 16.67 0H183.33Z" fill="#000"/>
</svg>
