<svg width="32" height="32" viewBox="0 0 200 200" fill="none" xmlns="http://www.w3.org/2000/svg">
<path d="M31.1667 22.9166C28.9566 22.9166 26.837 23.7946 25.2742 25.3574C23.7113 26.9202 22.8334 29.0398 22.8334 31.25V168.75C22.8334 170.96 23.7113 173.08 25.2742 174.643C26.837 176.205 28.9566 177.083 31.1667 177.083H168.833C171.044 177.083 173.163 176.205 174.726 174.643C176.289 173.08 177.167 170.96 177.167 168.75V31.25C177.167 29.0398 176.289 26.9202 174.726 25.3574C173.163 23.7946 171.044 22.9166 168.833 22.9166H31.1667Z" stroke="#222222" stroke-width="4" stroke-linecap="round" stroke-linejoin="round"/>
<path d="M35.4166 111.4V97.3708C35.4161 96.2192 35.6424 95.0788 36.0828 94.0147C36.5231 92.9506 37.1687 91.9836 37.9828 91.1691C38.797 90.3546 39.7636 89.7085 40.8275 89.2677C41.8914 88.8269 43.0317 88.6 44.1833 88.6C45.3352 88.5994 46.476 88.8259 47.5404 89.2665C48.6048 89.7071 49.5719 90.3531 50.3864 91.1677C51.201 91.9822 51.847 92.9493 52.2876 94.0137C52.7282 95.0781 52.9547 96.2189 52.9541 97.3708V111.4" stroke="#222222" stroke-width="4" stroke-linecap="round" stroke-linejoin="round"/>
<path d="M52.9542 97.3708C52.9537 96.2192 53.18 95.0788 53.6204 94.0147C54.0607 92.9506 54.7063 91.9836 55.5205 91.1691C56.3346 90.3546 57.3012 89.7085 58.3651 89.2677C59.429 88.8269 60.5693 88.6 61.7209 88.6V88.6C62.8725 88.6 64.0128 88.8269 65.0767 89.2677C66.1406 89.7085 67.1072 90.3546 67.9213 91.1691C68.7354 91.9836 69.3811 92.9506 69.8214 94.0147C70.2618 95.0788 70.4881 96.2192 70.4876 97.3708V111.4M94.6834 107.192C93.9172 108.537 92.8083 109.655 91.4697 110.432C90.1311 111.209 88.6105 111.618 87.0626 111.617V111.617C84.7375 111.617 82.5077 110.693 80.8636 109.049C79.2195 107.405 78.2959 105.175 78.2959 102.85V97.15C78.2959 94.8249 79.2195 92.5951 80.8636 90.951C82.5077 89.3069 84.7375 88.3833 87.0626 88.3833V88.3833C88.2142 88.3828 89.3546 88.6091 90.4187 89.0494C91.4828 89.4897 92.4497 90.1354 93.2642 90.9495C94.0787 91.7636 94.7248 92.7303 95.1657 93.7941C95.6065 94.858 95.8334 95.9984 95.8334 97.15V100H78.3001M104.167 111.4V97.3708C104.166 96.2188 104.393 95.0781 104.833 94.0137C105.274 92.9493 105.92 91.9822 106.734 91.1677C107.549 90.3531 108.516 89.7071 109.58 89.2665C110.645 88.8259 111.786 88.5994 112.938 88.6V88.6C114.089 88.6 115.229 88.8269 116.293 89.2677C117.357 89.7085 118.324 90.3546 119.138 91.1691C119.952 91.9836 120.598 92.9506 121.038 94.0147C121.478 95.0788 121.705 96.2192 121.704 97.3708V111.4M121.708 97.3708C121.708 96.2192 121.934 95.0788 122.375 94.0147C122.815 92.9506 123.46 91.9836 124.275 91.1691C125.089 90.3546 126.055 89.7085 127.119 89.2677C128.183 88.8269 129.323 88.6 130.475 88.6C131.627 88.6 132.767 88.8269 133.831 89.2677C134.895 89.7085 135.861 90.3546 136.675 91.1691C137.49 91.9836 138.135 92.9506 138.576 94.0147C139.016 95.0788 139.242 96.2192 139.242 97.3708V111.4M163.433 107.192C162.667 108.536 161.559 109.653 160.221 110.43C158.883 111.207 157.364 111.617 155.817 111.617V111.617C154.665 111.617 153.525 111.391 152.461 110.951C151.396 110.51 150.43 109.865 149.615 109.05C148.801 108.236 148.154 107.27 147.714 106.206C147.273 105.142 147.046 104.002 147.046 102.85V97.15C147.046 95.9984 147.273 94.858 147.714 93.7941C148.154 92.7303 148.801 91.7636 149.615 90.9495C150.43 90.1354 151.396 89.4897 152.461 89.0494C153.525 88.6091 154.665 88.3828 155.817 88.3833V88.3833C158.142 88.3833 160.372 89.3069 162.016 90.951C163.66 92.5951 164.583 94.8249 164.583 97.15V100H147.046" stroke="#222222" stroke-width="4" stroke-linecap="round" stroke-linejoin="round"/>
</svg>
