<svg width="32" height="32.1" viewBox="0 0 300 301" fill="none" xmlns="http://www.w3.org/2000/svg">
<path d="M228.947 167.632L176.842 191.316L228.947 216.579" stroke="black" stroke-width="10"/>
<path d="M82.1052 267.105L121.579 240.263C144.316 235.21 145.789 253.947 143.684 263.947C129.789 287.947 107.368 295 97.8947 295.526C71.3684 296.789 51.0526 276.053 44.2105 265.526C58.1052 274.368 75.2631 270.263 82.1052 267.105Z" stroke="black" stroke-width="10"/>
<path d="M220.166 266.375L180.692 239.533C157.956 234.48 156.482 253.217 158.587 263.217C172.482 287.217 194.903 294.27 204.377 294.796C230.903 296.059 251.219 275.322 258.061 264.796C244.166 273.638 227.008 269.533 220.166 266.375Z" stroke="black" stroke-width="10"/>
<path d="M72.6316 63.4211H227.368" stroke="black" stroke-width="10"/>
<path d="M82.1053 5H217.895" stroke="black" stroke-width="10"/>
<path d="M71.0526 96.579V17.6316C71.0526 13.4211 73.2631 5 82.1052 5" stroke="black" stroke-width="10"/>
<path d="M228.947 96.579V17.6316C228.947 13.4211 226.737 5 217.895 5" stroke="black" stroke-width="10"/>
<rect x="5" y="101.579" width="290" height="31.0526" rx="15" stroke="black" stroke-width="10"/>
<path d="M133.947 192.895C133.947 211.934 118.513 227.368 99.4737 227.368C80.4344 227.368 65 211.934 65 192.895C65 173.855 80.4344 158.421 99.4737 158.421C118.513 158.421 133.947 173.855 133.947 192.895Z" stroke="black" stroke-width="10"/>
<path d="M60 192.895H31.5789C27.8947 192.895 20.5263 195.737 20.5263 207.105V292.368" stroke="black" stroke-width="10"/>
</svg>
