<svg width="32" height="32" viewBox="0 0 274 274" fill="none" xmlns="http://www.w3.org/2000/svg">
<path fill-rule="evenodd" clip-rule="evenodd" d="M206.425 78.4642C208.876 75.8674 213.057 75.9699 215.18 78.8414C242.697 116.055 240.492 168.751 207.604 203.586C174.717 238.42 122.235 243.649 83.5017 218.316C80.5129 216.361 80.1704 212.193 82.622 209.596L88.3558 203.523C90.4126 201.345 93.7515 201.042 96.3037 202.612C126.848 221.398 167.388 216.88 192.977 189.775C218.566 162.671 220.747 121.939 200.238 92.5244C198.524 90.0667 198.634 86.7159 200.691 84.5372L206.425 78.4642ZM190.883 63.7911C193.335 61.1943 192.992 57.0268 190.003 55.072C151.27 29.7381 98.7877 34.9676 65.9004 69.802C33.0131 104.636 30.8075 157.333 58.325 194.546C60.4483 197.418 64.6286 197.52 67.0803 194.923L72.814 188.85C74.8708 186.672 74.9811 183.321 73.2674 180.863C52.7573 151.448 54.9384 110.716 80.5278 83.6117C106.117 56.5073 146.657 51.9896 177.201 70.7757C179.754 72.3454 183.092 72.0428 185.149 69.8641L190.883 63.7911Z" fill="black"/>
<rect x="77.8933" y="154.185" width="106.241" height="15.0875" rx="5" transform="rotate(-46.2886 77.8933 154.185)" fill="black"/>
<rect x="111.555" y="185.224" width="106.241" height="15.0875" rx="5" transform="rotate(-46.2886 111.555 185.224)" fill="black"/>
<rect x="105.691" y="158.209" width="67.4751" height="15.0875" rx="5" transform="rotate(-46.2886 105.691 158.209)" fill="black"/>
</svg>
