<svg width="32" height="32" viewBox="0 0 200 200" fill="none" xmlns="http://www.w3.org/2000/svg">
<path d="M75.0026 100.003C79.4229 100.003 83.6621 98.2467 86.7877 95.121C89.9133 91.9954 91.6693 87.7562 91.6693 83.3359C91.6693 78.9157 89.9133 74.6764 86.7877 71.5508C83.6621 68.4252 79.4229 66.6693 75.0026 66.6693C70.5823 66.6693 66.3431 68.4252 63.2175 71.5508C60.0919 74.6764 58.3359 78.9157 58.3359 83.3359C58.3359 87.7562 60.0919 91.9954 63.2175 95.121C66.3431 98.2467 70.5823 100.003 75.0026 100.003ZM100.003 8.33594L179.169 54.1693V145.836L100.003 191.669L20.8359 145.836V54.1693L100.003 8.33594ZM37.5026 63.7776V136.228L57.2693 147.669L124.544 98.3359L162.503 121.119V63.7859L100.003 27.5859L37.5026 63.7776Z" fill="#222222"/>
</svg>
