<svg width="32" height="32" viewBox="0 0 200 200" fill="none" xmlns="http://www.w3.org/2000/svg">
<g clip-path="url(#clip0_15_5)">
<path d="M106.438 12.7375C104.295 12.5793 102.148 12.5001 100 12.5V0C102.457 0.00119784 104.913 0.0929267 107.362 0.275L106.438 12.7375ZM131.488 18.3625C127.481 16.8163 123.365 15.5671 119.175 14.625L121.913 2.425C126.7 3.5 131.412 4.925 135.987 6.7L131.488 18.3625V18.3625ZM148.612 27.2375C146.825 26.0456 144.995 24.9199 143.125 23.8625L149.287 12.9875C153.561 15.4092 157.651 18.1415 161.525 21.1625L153.838 31.025C152.143 29.7029 150.4 28.4437 148.612 27.25V27.2375ZM171.537 49.6125C169.065 46.0997 166.337 42.774 163.375 39.6625L172.425 31.0375C175.8 34.6 178.925 38.4125 181.763 42.4125L171.537 49.6125V49.6125ZM180.838 66.5125C180.017 64.5307 179.125 62.5794 178.163 60.6625L189.325 55.0375C191.532 59.4261 193.413 63.9718 194.95 68.6375L183.075 72.55C182.403 70.5108 181.657 68.497 180.838 66.5125V66.5125ZM187.462 97.85C187.361 93.5542 186.944 89.2718 186.213 85.0375L198.525 82.9125C199.362 87.7375 199.85 92.6375 199.975 97.5375L187.475 97.85H187.462ZM185.825 117.075C186.238 114.95 186.575 112.837 186.837 110.7L199.25 112.238C198.65 117.114 197.689 121.94 196.375 126.675L184.325 123.337C184.9 121.275 185.4 119.188 185.825 117.075V117.075ZM173.925 146.812C176.225 143.187 178.25 139.387 180 135.462L191.425 140.525C189.425 145.025 187.112 149.35 184.487 153.5L173.925 146.812ZM161.875 161.875C163.4 160.35 164.863 158.775 166.25 157.15L175.725 165.313C174.12 167.173 172.449 168.974 170.712 170.712L161.875 161.875V161.875Z" fill="black"/>
<path d="M100 12.5C85.611 12.501 71.4443 16.0506 58.7547 22.8342C46.0651 29.6179 35.2443 39.4263 27.2507 51.3906C19.2571 63.355 14.3374 77.106 12.9274 91.4258C11.5174 105.746 13.6606 120.192 19.1672 133.486C24.6738 146.779 33.3738 158.51 44.4966 167.638C55.6194 176.766 68.8217 183.011 82.9342 185.818C97.0466 188.626 111.634 187.91 125.403 183.733C139.173 179.557 151.7 172.049 161.875 161.875L170.712 170.712C159.084 182.347 144.766 190.934 129.025 195.712C113.285 200.491 96.6096 201.313 80.4758 198.106C64.342 194.899 49.2482 187.762 36.5318 177.328C23.8155 166.893 13.8692 153.483 7.57416 138.286C1.27915 123.089 -1.17019 106.573 0.443161 90.2034C2.05651 73.8332 7.68273 58.1138 16.8233 44.4377C25.9639 30.7617 38.3367 19.5514 52.8453 11.8C67.354 4.04869 83.5505 -0.00435915 100 3.51823e-06V12.5Z" fill="black"/>
<path d="M93.75 37.5C95.4076 37.5 96.9973 38.1585 98.1694 39.3306C99.3415 40.5027 100 42.0924 100 43.75V108.875L140.6 132.075C141.997 132.918 143.01 134.274 143.42 135.854C143.831 137.433 143.608 139.111 142.798 140.527C141.988 141.944 140.657 142.989 139.087 143.437C137.518 143.885 135.836 143.701 134.4 142.925L90.65 117.925C89.6934 117.379 88.8982 116.589 88.3451 115.636C87.7919 114.684 87.5004 113.602 87.5 112.5V43.75C87.5 42.0924 88.1585 40.5027 89.3306 39.3306C90.5027 38.1585 92.0924 37.5 93.75 37.5V37.5Z" fill="black"/>
</g>
<defs>
<clipPath id="clip0_15_5">
<rect width="200" height="200" fill="white"/>
</clipPath>
</defs>
</svg>
