<svg width="32" height="32" viewBox="0 0 200 200" fill="none" xmlns="http://www.w3.org/2000/svg">
<path d="M140.25 121.167C136.456 128.589 130.686 134.818 123.577 139.169C116.467 143.52 108.294 145.822 99.9583 145.822C91.623 145.822 83.4497 143.52 76.34 139.169C69.2302 134.818 63.4603 128.589 59.6666 121.167M144.375 90.4583C160.5 97.1667 156.875 106.375 136.042 111.875C112.09 117.379 87.2017 117.379 63.25 111.875C42.4166 106.375 39.1666 97.125 55.375 90.4167" stroke="black" stroke-width="4.16667" stroke-linecap="round" stroke-linejoin="round"/>
<path d="M140.042 78.5417C172.125 84.0417 187.958 95.2083 178.583 106.083C169.208 116.958 136.917 124.333 100.125 124.333C63.3333 124.333 30.9583 116.875 21.4999 106.167C12.0416 95.4583 27.7083 84.0833 59.7499 78.5833" stroke="black" stroke-width="4.16667" stroke-linecap="round" stroke-linejoin="round"/>
<path d="M55.4583 109.208C53.6148 100.32 54.4522 91.084 57.8645 82.672C61.2768 74.26 67.1101 67.0508 74.6249 61.9583C82.0895 56.8997 90.8994 54.1958 99.9166 54.1958C108.934 54.1958 117.744 56.8997 125.208 61.9583C132.731 67.0369 138.576 74.2346 142.003 82.639C145.43 91.0434 146.284 100.276 144.458 109.167" stroke="black" stroke-width="4.16667" stroke-linecap="round" stroke-linejoin="round"/>
</svg>
