<svg width="32" height="32" viewBox="0 0 200 200" fill="none" xmlns="http://www.w3.org/2000/svg">
<path d="M66.15 14.0016C65.1678 14.0176 64.2321 14.4224 63.5479 15.1273C62.8637 15.8321 62.4868 16.7795 62.5 17.7617V63.5988H17.7734C16.7892 63.5988 15.8453 63.9898 15.1494 64.6857C14.4535 65.3817 14.0625 66.3256 14.0625 67.3098C14.0625 68.294 14.4535 69.2379 15.1494 69.9338C15.8453 70.6297 16.7892 71.0207 17.7734 71.0207H62.5V130.005H17.7734C16.7892 130.005 15.8453 130.396 15.1494 131.092C14.4535 131.788 14.0625 132.732 14.0625 133.716C14.0625 134.7 14.4535 135.644 15.1494 136.34C15.8453 137.036 16.7892 137.427 17.7734 137.427H62.5V182.227C62.5 183.211 62.891 184.155 63.5869 184.851C64.2828 185.547 65.2267 185.938 66.2109 185.938C67.1951 185.938 68.139 185.547 68.835 184.851C69.5309 184.155 69.9219 183.211 69.9219 182.227V137.427H128.906V182.227C128.906 183.211 129.297 184.155 129.993 184.851C130.689 185.547 131.633 185.938 132.617 185.938C133.601 185.938 134.545 185.547 135.241 184.851C135.937 184.155 136.328 183.211 136.328 182.227V137.427H182.19C183.174 137.427 184.118 137.036 184.814 136.34C185.51 135.644 185.901 134.7 185.901 133.716C185.901 132.731 185.51 131.788 184.814 131.092C184.118 130.396 183.174 130.005 182.19 130.005H136.328V71.0203H181.47C181.957 71.0203 182.44 70.9243 182.89 70.7378C183.34 70.5513 183.749 70.278 184.094 69.9334C184.439 69.5888 184.712 69.1797 184.898 68.7295C185.085 68.2793 185.181 67.7967 185.181 67.3094C185.181 66.822 185.085 66.3395 184.898 65.8893C184.712 65.439 184.439 65.0299 184.094 64.6853C183.749 64.3408 183.34 64.0674 182.89 63.8809C182.44 63.6944 181.957 63.5984 181.47 63.5984H136.328V17.7617C136.335 17.2651 136.242 16.7722 136.054 16.3122C135.867 15.8522 135.589 15.4345 135.237 15.0839C134.886 14.7332 134.467 14.4568 134.007 14.2708C133.546 14.0849 133.053 13.9934 132.556 14.0016C131.574 14.0176 130.638 14.4224 129.954 15.1273C129.27 15.8321 128.893 16.7795 128.906 17.7617V63.5988H69.9219V17.7617C69.9285 17.2651 69.8354 16.7722 69.6481 16.3122C69.4607 15.8522 69.183 15.4345 68.8312 15.0839C68.4795 14.7332 68.0609 14.4568 67.6004 14.2708C67.1398 14.0849 66.6466 13.9934 66.15 14.0016V14.0016ZM33.5938 14.0508C28.4883 14.0508 23.5273 15.9805 19.8609 19.4582C16.1945 22.9355 14.0625 27.7578 14.0625 32.7633C14.0625 37.7688 16.1945 42.5914 19.8609 46.0691C23.5273 49.5469 28.4883 51.4883 33.5938 51.4883C38.6992 51.4883 43.6602 49.5469 47.3266 46.0684C50.993 42.5914 53.125 37.7695 53.125 32.7641C53.125 27.7586 50.993 22.9359 47.3266 19.4582C43.6602 15.9805 38.6992 14.0508 33.5938 14.0508ZM100 14.0508C94.8945 14.0508 89.9336 15.9805 86.2672 19.4582C82.6008 22.9355 80.4688 27.7578 80.4688 32.7633C80.4688 37.7688 82.6008 42.5914 86.2672 46.0691C89.9336 49.5469 94.8945 51.4883 100 51.4883C105.105 51.4883 110.066 49.5469 113.733 46.0684C117.399 42.5914 119.531 37.7695 119.531 32.7641C119.531 27.7586 117.399 22.9359 113.733 19.4582C110.066 15.9805 105.105 14.0508 100 14.0508ZM154.236 17.6516C153.498 17.6537 152.778 17.8756 152.167 18.2888C151.557 18.7021 151.083 19.2879 150.806 19.9717C150.53 20.6555 150.463 21.4061 150.616 22.1277C150.768 22.8494 151.131 23.5094 151.66 24.0234L160.4 32.7637L151.953 41.2109C151.608 41.5556 151.335 41.9648 151.149 42.4151C150.962 42.8655 150.866 43.3481 150.866 43.8355C150.866 44.323 150.962 44.8056 151.149 45.256C151.335 45.7063 151.608 46.1155 151.953 46.4602C152.298 46.8048 152.707 47.0782 153.157 47.2648C153.608 47.4513 154.09 47.5473 154.578 47.5473C155.065 47.5473 155.548 47.4513 155.998 47.2648C156.448 47.0782 156.858 46.8048 157.202 46.4602L165.65 38.0125L174.39 46.7652C175.086 47.4613 176.03 47.8522 177.015 47.8521C177.999 47.852 178.943 47.4608 179.639 46.7647C180.335 46.0685 180.726 45.1243 180.726 44.1398C180.726 43.1554 180.335 42.2113 179.639 41.5152L170.898 32.7641L179.346 24.3168C179.883 23.7956 180.25 23.1243 180.398 22.3908C180.547 21.6574 180.47 20.8962 180.179 20.207C179.887 19.5179 179.394 18.9331 178.764 18.5293C178.133 18.1255 177.396 17.9217 176.648 17.9445C175.684 17.973 174.768 18.376 174.096 19.068L165.649 27.5148L156.909 18.775C156.561 18.4179 156.146 18.1344 155.686 17.9414C155.227 17.7484 154.734 17.6498 154.236 17.6516H154.236ZM33.5938 21.4719C36.7723 21.4719 40.0332 22.7754 42.2242 24.8535C44.4148 26.9316 45.7152 29.9121 45.7152 32.7637C45.7152 35.6152 44.4152 38.6074 42.2246 40.6855C40.0332 42.7637 36.7727 44.0551 33.5941 44.0551C30.4156 44.0551 27.1547 42.7645 24.9637 40.6863C22.773 38.6082 21.4727 35.616 21.4727 32.7645C21.4727 29.9121 22.7727 26.9324 24.9633 24.8543C27.1547 22.7762 30.4152 21.4727 33.5938 21.4727V21.4719ZM100 21.4719C103.179 21.4719 106.439 22.7754 108.63 24.8535C110.821 26.9316 112.121 29.9121 112.121 32.7637C112.121 35.6152 110.821 38.6074 108.631 40.6855C106.439 42.7637 103.179 44.0551 100 44.0551C96.8219 44.0551 93.5609 42.7645 91.3699 40.6863C89.1793 38.6082 87.8789 35.616 87.8789 32.7645C87.8789 29.9121 89.1789 26.9324 91.3695 24.8543C93.5609 22.7762 96.8215 21.4727 100 21.4727V21.4719ZM69.9219 71.0203H128.906V130.005H69.9219V71.0203ZM165.65 81.2867C160.544 81.2867 155.583 83.2164 151.916 86.6945C148.25 90.1723 146.118 94.9945 146.118 100C146.118 105.005 148.25 109.828 151.916 113.306C155.583 116.784 160.544 118.726 165.649 118.726C170.755 118.726 175.716 116.784 179.382 113.306C183.048 109.828 185.18 105.005 185.18 100C185.18 94.9945 183.048 90.1719 179.382 86.6941C175.715 83.2164 170.754 81.2867 165.648 81.2867H165.65ZM88.5988 84.8883C87.8605 84.8882 87.1388 85.1084 86.5263 85.5206C85.9137 85.9329 85.4381 86.5186 85.1602 87.2027C84.8823 87.8868 84.8149 88.6382 84.9664 89.3609C85.118 90.0835 85.4816 90.7446 86.0109 91.2594L94.7512 100L86.3039 108.447C85.9551 108.791 85.6778 109.2 85.4879 109.652C85.298 110.103 85.1993 110.588 85.1975 111.077C85.1957 111.567 85.2908 112.052 85.4774 112.505C85.6639 112.958 85.9382 113.369 86.2845 113.715C86.6308 114.062 87.0421 114.336 87.4949 114.523C87.9477 114.709 88.4329 114.804 88.9226 114.803C89.4123 114.801 89.8968 114.702 90.3482 114.512C90.7996 114.323 91.209 114.045 91.5527 113.696L100 105.249L108.74 113.989C109.085 114.334 109.494 114.608 109.944 114.794C110.395 114.981 110.877 115.077 111.365 115.077C111.852 115.077 112.335 114.981 112.785 114.794C113.236 114.608 113.645 114.334 113.989 113.989C114.334 113.645 114.608 113.236 114.794 112.785C114.981 112.335 115.077 111.852 115.077 111.365C115.077 110.877 114.981 110.395 114.794 109.944C114.608 109.494 114.334 109.085 113.989 108.74L105.249 100L113.696 91.5527C114.234 91.0315 114.6 90.3602 114.749 89.6267C114.898 88.8932 114.821 88.1319 114.529 87.4428C114.238 86.7536 113.744 86.1688 113.114 85.7651C112.484 85.3613 111.746 85.1576 110.998 85.1805C110.035 85.2092 109.12 85.612 108.448 86.3035L100 94.7512L91.2598 86.0109C90.9138 85.6553 90.5 85.3727 90.0429 85.1798C89.5857 84.9869 89.0946 84.8877 88.5984 84.8879L88.5988 84.8883ZM165.65 88.7086C168.828 88.7086 172.089 89.9996 174.28 92.0777C176.471 94.1559 177.771 97.148 177.771 99.9996C177.771 102.851 176.47 105.832 174.28 107.91C172.089 109.988 168.828 111.291 165.649 111.291C162.471 111.291 159.21 109.988 157.019 107.91C154.828 105.832 153.527 102.851 153.527 99.9996C153.527 97.148 154.828 94.1559 157.019 92.0777C159.209 89.9996 162.471 88.7082 165.649 88.7082L165.65 88.7086ZM100 148.498C94.8945 148.498 89.9336 150.428 86.2672 153.906C82.6008 157.384 80.4688 162.207 80.4688 167.212C80.4688 172.217 82.6008 177.052 86.2672 180.53C89.9336 184.008 94.8945 185.949 100 185.949C105.105 185.949 110.066 184.008 113.733 180.53C117.399 177.052 119.531 172.217 119.531 167.212C119.531 162.207 117.399 157.384 113.733 153.906C110.066 150.429 105.105 148.498 100 148.498V148.498ZM22.1922 152.1C21.4537 152.1 20.7319 152.32 20.1192 152.732C19.5066 153.145 19.0309 153.73 18.753 154.415C18.4752 155.099 18.4078 155.851 18.5595 156.573C18.7112 157.296 19.0751 157.957 19.6047 158.472L28.3445 167.224L19.8984 175.672C19.5457 176.015 19.2647 176.424 19.0717 176.877C18.8786 177.329 18.7774 177.815 18.7739 178.307C18.7704 178.799 18.8648 179.287 19.0514 179.742C19.238 180.197 19.5133 180.61 19.8611 180.958C20.2089 181.306 20.6224 181.581 21.0775 181.768C21.5326 181.954 22.0202 182.049 22.5121 182.045C23.0039 182.042 23.4902 181.94 23.9426 181.747C24.395 181.554 24.8045 181.273 25.1473 180.92L33.5938 172.473L42.334 181.213C42.6777 181.562 43.0871 181.839 43.5385 182.029C43.9898 182.219 44.4744 182.318 44.9641 182.32C45.4538 182.322 45.939 182.226 46.3918 182.04C46.8445 181.853 47.2559 181.579 47.6022 181.233C47.9485 180.886 48.2228 180.475 48.4094 180.022C48.596 179.57 48.6912 179.084 48.6894 178.595C48.6877 178.105 48.589 177.62 48.3991 177.169C48.2093 176.718 47.932 176.308 47.5832 175.964L38.8426 167.224L47.2902 158.777C47.8274 158.255 48.1945 157.584 48.3432 156.85C48.4919 156.117 48.4153 155.356 48.1235 154.666C47.8317 153.977 47.3383 153.392 46.7081 152.988C46.0779 152.585 45.3403 152.381 44.5922 152.404C43.6283 152.433 42.7135 152.835 42.0414 153.527L33.5938 161.975L24.8535 153.223C24.5075 152.867 24.0937 152.584 23.6366 152.392C23.1795 152.199 22.6883 152.099 22.1922 152.1V152.1ZM100 155.932C103.179 155.932 106.439 157.223 108.63 159.302C110.821 161.38 112.121 164.359 112.121 167.212C112.121 170.063 110.821 173.055 108.631 175.134C106.439 177.212 103.179 178.503 100 178.503C96.8219 178.503 93.5609 177.212 91.3699 175.134C89.1793 173.055 87.8789 170.063 87.8789 167.212C87.8789 164.359 89.1789 161.38 91.3695 159.301C93.5609 157.223 96.8215 155.932 100 155.932V155.932Z" fill="black"/>
</svg>
