<svg width="32" height="32" viewBox="0 0 200 200" fill="none" xmlns="http://www.w3.org/2000/svg">
<path d="M64.25 33L43.75 53.5188L35.75 45.5188L26.75 54.5L39.25 67L43.75 71.2875L48.25 66.9938L73.25 41.9938L64.25 32.9938V33ZM93.75 43.75V56.25H175V43.75H93.75ZM64.25 83L43.75 103.525L35.75 95.5L26.75 104.5L39.25 117L43.75 121.288L48.25 116.994L73.25 91.9938L64.25 82.9938V83ZM93.75 93.75V106.25H175V93.75H93.75ZM64.25 133L43.75 153.519L35.75 145.519L26.75 154.5L39.25 167L43.75 171.288L48.25 166.994L73.25 141.994L64.25 132.994V133ZM93.75 143.75V156.25H175V143.75H93.75Z" fill="#222222"/>
</svg>
