<svg width="176" height="138" viewBox="0 0 176 138" fill="none" xmlns="http://www.w3.org/2000/svg">
<path d="M169.25 0.25H6.75C3.29297 0.25 0.5 3.04297 0.5 6.5V131.5C0.5 134.957 3.29297 137.75 6.75 137.75H169.25C172.707 137.75 175.5 134.957 175.5 131.5V6.5C175.5 3.04297 172.707 0.25 169.25 0.25ZM153.469 21.5195L91.8477 69.4688C90.3242 70.6602 88.1953 70.6602 86.6719 69.4688L25.0313 21.5195C24.7989 21.3402 24.6285 21.0927 24.5438 20.8116C24.4592 20.5306 24.4647 20.2301 24.5594 19.9523C24.6542 19.6745 24.8335 19.4333 25.0722 19.2625C25.3109 19.0918 25.5971 19 25.8906 19H152.609C152.903 19 153.189 19.0918 153.428 19.2625C153.667 19.4333 153.846 19.6745 153.941 19.9523C154.035 20.2301 154.041 20.5306 153.956 20.8116C153.872 21.0927 153.701 21.3402 153.469 21.5195Z" fill="black"/>
</svg>
